<?xml version="1.0" encoding="UTF-8" standalone="no"?>
<!-- Created with Inkscape (http://www.inkscape.org/) -->

<svg
   version="1.1"
   id="svg2"
   width="793.70135"
   height="1122.52"
   viewBox="0 0 793.70135 1122.52"
   sodipodi:docname="appropriateness-taxonomy-vertical.ai"
   xmlns:inkscape="http://www.inkscape.org/namespaces/inkscape"
   xmlns:sodipodi="http://sodipodi.sourceforge.net/DTD/sodipodi-0.dtd"
   xmlns="http://www.w3.org/2000/svg"
   xmlns:svg="http://www.w3.org/2000/svg">
  <defs
     id="defs6" />
  <sodipodi:namedview
     id="namedview4"
     pagecolor="#ffffff"
     bordercolor="#000000"
     borderopacity="0.25"
     inkscape:showpageshadow="2"
     inkscape:pageopacity="0.0"
     inkscape:pagecheckerboard="0"
     inkscape:deskcolor="#d1d1d1" />
  <g
     id="g8"
     inkscape:groupmode="layer"
     inkscape:label="appropriateness-taxonomy-vertical"
     transform="matrix(1.3333333,0,0,-1.3333333,0,1122.52)">
    <g
       id="g10"
       transform="translate(513.1276,672.1968)">
      <path
         d="M 0,0 V 98.827"
         style="fill:none;stroke:#3c3c3c;stroke-width:0.5;stroke-linecap:butt;stroke-linejoin:miter;stroke-miterlimit:4;stroke-dasharray:none;stroke-opacity:1"
         id="path12" />
    </g>
    <g
       id="g14"
       transform="translate(514.6235,672.6345)">
      <path
         d="M 0,0 -1.496,-2.59 -2.992,0 Z"
         style="fill:#3c3c3c;fill-opacity:1;fill-rule:nonzero;stroke:none"
         id="path16" />
    </g>
    <g
       id="g18"
       transform="translate(297.7139,745.3373)">
      <path
         d="M 0,0 V -5.722"
         style="fill:none;stroke:#3c3c3c;stroke-width:0.5;stroke-linecap:butt;stroke-linejoin:miter;stroke-miterlimit:4;stroke-dasharray:none;stroke-opacity:1"
         id="path20" />
    </g>
    <g
       id="g22"
       transform="translate(112.6499,707.378)">
      <path
         d="M 0,0 V -5.848"
         style="fill:none;stroke:#3c3c3c;stroke-width:0.5;stroke-linecap:butt;stroke-linejoin:miter;stroke-miterlimit:4;stroke-dasharray:none;stroke-opacity:1"
         id="path24" />
    </g>
    <g
       id="g26"
       transform="translate(207.3922,707.0635)">
      <path
         d="M 0,0 V -5.699"
         style="fill:none;stroke:#3c3c3c;stroke-width:0.5;stroke-linecap:butt;stroke-linejoin:miter;stroke-miterlimit:4;stroke-dasharray:none;stroke-opacity:1"
         id="path28" />
    </g>
    <g
       id="g30"
       transform="translate(325.9995,707.0635)">
      <path
         d="M 0,0 V -5.848"
         style="fill:none;stroke:#3c3c3c;stroke-width:0.5;stroke-linecap:butt;stroke-linejoin:miter;stroke-miterlimit:4;stroke-dasharray:none;stroke-opacity:1"
         id="path32" />
    </g>
    <g
       id="g34"
       transform="translate(450.4603,707.0635)">
      <path
         d="M 0,0 V -5.715"
         style="fill:none;stroke:#3c3c3c;stroke-width:0.5;stroke-linecap:butt;stroke-linejoin:miter;stroke-miterlimit:4;stroke-dasharray:none;stroke-opacity:1"
         id="path36" />
    </g>
    <g
       id="g38"
       transform="translate(112.6499,739.8523)">
      <path
         d="M 0,0 V -4.072"
         style="fill:none;stroke:#3c3c3c;stroke-width:0.5;stroke-linecap:butt;stroke-linejoin:miter;stroke-miterlimit:4;stroke-dasharray:none;stroke-opacity:1"
         id="path40" />
    </g>
    <g
       id="g42"
       transform="translate(111.154,736.2184)">
      <path
         d="M 0,0 1.496,-2.59 2.992,0 Z"
         style="fill:#3c3c3c;fill-opacity:1;fill-rule:nonzero;stroke:none"
         id="path44" />
    </g>
    <g
       id="g46"
       transform="translate(112.4028,739.8523)">
      <path
         d="M 0,0 H 338.307"
         style="fill:none;stroke:#3c3c3c;stroke-width:0.5;stroke-linecap:butt;stroke-linejoin:miter;stroke-miterlimit:4;stroke-dasharray:none;stroke-opacity:1"
         id="path48" />
    </g>
    <g
       id="g50"
       transform="translate(89.9063,701.5964)">
      <path
         d="M 0,0 H 45.334"
         style="fill:none;stroke:#3c3c3c;stroke-width:0.5;stroke-linecap:butt;stroke-linejoin:miter;stroke-miterlimit:4;stroke-dasharray:none;stroke-opacity:1"
         id="path52" />
    </g>
    <g
       id="g54"
       transform="translate(184.2235,701.5966)">
      <path
         d="M 0,0 H 50.36"
         style="fill:none;stroke:#3c3c3c;stroke-width:0.5;stroke-linecap:butt;stroke-linejoin:miter;stroke-miterlimit:4;stroke-dasharray:none;stroke-opacity:1"
         id="path56" />
    </g>
    <g
       id="g58"
       transform="translate(422.002,701.5966)">
      <path
         d="M 0,0 H 56.258"
         style="fill:none;stroke:#3c3c3c;stroke-width:0.5;stroke-linecap:butt;stroke-linejoin:miter;stroke-miterlimit:4;stroke-dasharray:none;stroke-opacity:1"
         id="path60" />
    </g>
    <g
       id="g62"
       transform="translate(277.3059,701.5966)">
      <path
         d="M 0,0 H 93.431"
         style="fill:none;stroke:#3c3c3c;stroke-width:0.5;stroke-linecap:butt;stroke-linejoin:miter;stroke-miterlimit:4;stroke-dasharray:none;stroke-opacity:1"
         id="path64" />
    </g>
    <path
       d="M 503.075,746.937 H 71.016 v 24.087 h 432.059 z"
       style="fill:#e8e8e8;fill-opacity:1;fill-rule:nonzero;stroke:none"
       id="path66" />
    <path
       d="M 109.278,670.425 H 71.013 v 24.087 h 38.265 z"
       style="fill:#e8e8e8;fill-opacity:1;fill-rule:nonzero;stroke:none"
       id="path68" />
    <path
       d="m 154.408,670.425 h -38.832 v 24.087 h 38.832 z"
       style="fill:#e8e8e8;fill-opacity:1;fill-rule:nonzero;stroke:none"
       id="path70" />
    <path
       d="m 208.236,670.044 h -47.531 v 24.087 h 47.531 z"
       style="fill:#e8e8e8;fill-opacity:1;fill-rule:nonzero;stroke:none"
       id="path72" />
    <path
       d="m 254.13,670.044 h -39.594 v 24.087 h 39.594 z"
       style="fill:#e8e8e8;fill-opacity:1;fill-rule:nonzero;stroke:none"
       id="path74" />
    <path
       d="m 294.655,670.044 h -34.198 v 24.087 h 34.198 z"
       style="fill:#e8e8e8;fill-opacity:1;fill-rule:nonzero;stroke:none"
       id="path76" />
    <path
       d="m 343.139,670.044 h -42.186 v 24.087 h 42.186 z"
       style="fill:#e8e8e8;fill-opacity:1;fill-rule:nonzero;stroke:none"
       id="path78" />
    <path
       d="m 391.544,670.044 h -42.108 v 24.087 h 42.108 z"
       style="fill:#e8e8e8;fill-opacity:1;fill-rule:nonzero;stroke:none"
       id="path80" />
    <path
       d="m 446.651,670.044 h -48.807 v 24.087 h 48.807 z"
       style="fill:#e8e8e8;fill-opacity:1;fill-rule:nonzero;stroke:none"
       id="path82" />
    <path
       d="m 503.075,670.044 h -50.126 v 24.087 h 50.126 z"
       style="fill:#e8e8e8;fill-opacity:1;fill-rule:nonzero;stroke:none"
       id="path84" />
    <path
       d="M 391.544,708.429 H 260.457 v 24.087 h 131.087 z"
       style="fill:#e8e8e8;fill-opacity:1;fill-rule:nonzero;stroke:none"
       id="path86" />
    <path
       d="M 503.075,708.429 H 397.844 v 24.087 h 105.231 z"
       style="fill:#e8e8e8;fill-opacity:1;fill-rule:nonzero;stroke:none"
       id="path88" />
    <path
       d="m 254.13,708.429 h -93.475 v 24.087 h 93.475 z"
       style="fill:#e8e8e8;fill-opacity:1;fill-rule:nonzero;stroke:none"
       id="path90" />
    <path
       d="M 154.356,708.429 H 70.94 v 24.087 h 83.416 z"
       style="fill:#e8e8e8;fill-opacity:1;fill-rule:nonzero;stroke:none"
       id="path92" />
    <text
       xml:space="preserve"
       transform="matrix(1,0,0,-1,464.2256,683.978)"
       style="font-variant:normal;font-weight:normal;font-stretch:normal;font-size:8px;font-family:Helvetica;-inkscape-font-specification:Helvetica;writing-mode:lr-tb;fill:#ffb000;fill-opacity:1;fill-rule:nonzero;stroke:none"
       id="text118"><tspan
         x="0 5.776 10.224 14.672 18.672001 23.120001"
         y="0"
         sodipodi:role="line"
         id="tspan94">Reason</tspan><tspan
         x="-7.776 -2 2.448 6.448 8.224 12.672 16.672001 20.672001 22.448 24.672001 26.448 30.896"
         y="9"
         sodipodi:role="line"
         id="tspan96">Unclassified</tspan><tspan
         x="-392.07999 -386.74399 -382.74399 -378.74399 -374.29599 -370.29599 -366.29599 -364.51999 -360.51999"
         y="0.024"
         sodipodi:role="line"
         id="tspan98">Excessive</tspan><tspan
         x="-388.96799 -386.74399 -382.29599 -380.07199 -375.62399 -371.17599 -367.17599 -365.39999 -363.17599"
         y="8.0240002"
         sodipodi:role="line"
         id="tspan100">Intensity</tspan><tspan
         x="-347.04001 -341.70401 -335.04001 -330.59201 -328.36801 -326.59201 -322.14401 -317.69601 -313.24799"
         y="-0.472"
         sodipodi:role="line"
         id="tspan102">Emotional</tspan><tspan
         x="-349.48801 -347.26401 -341.48801 -337.04001 -333.04001 -328.59201 -324.14401 -321.92001 -320.14401 -315.69601 -311.23999"
         y="8.5279999"
         sodipodi:role="line"
         id="tspan104"> Deception </tspan><tspan
         x="-243.448 -236.784 -235.008 -231.008 -227.008 -225.23199 -220.784"
         y="-0.088"
         sodipodi:role="line"
         id="tspan106">Missing</tspan><tspan
         x="-248.12 -241.896 -237.448 -233 -228.552 -224.104 -219.65601 -215.65601"
         y="8.9119997"
         sodipodi:role="line"
         id="tspan108">Openness</tspan><tspan
         x="-293.30399 -286.64001 -284.86401 -280.86401 -276.86401 -275.08801 -270.64001"
         y="-0.088"
         sodipodi:role="line"
         id="tspan110">Missing</tspan><tspan
         x="-301.76001 -296.42401 -291.97601 -289.31201 -287.53601 -283.08801 -278.64001 -274.64001 -270.19199 -265.74399 -261.74399"
         y="8.9119997"
         sodipodi:role="line"
         id="tspan112">Seriousness</tspan><tspan
         x="-111.744 -105.968 -101.52 -97.071999 -94.848 -90.400002 -86.400002 -84.624001 -80.176003"
         y="-0.088"
         sodipodi:role="line"
         id="tspan114">Confusing</tspan><tspan
         x="-112.856 -107.08 -102.632 -98.183998 -94.183998 -89.736 -85.288002 -83.512001 -79.064003"
         y="8.9119997"
         sodipodi:role="line"
         id="tspan116">Reasoning</tspan></text>
    <text
       xml:space="preserve"
       transform="matrix(0.999525,0,0,-1,308.4932,684.0742)"
       style="font-variant:normal;font-weight:normal;font-stretch:normal;font-size:8px;font-family:Helvetica;-inkscape-font-specification:Helvetica;writing-mode:lr-tb;fill:#fe6100;fill-opacity:1;fill-rule:nonzero;stroke:none"
       id="text122"><tspan
         x="0 6.664 8.4399996 12.44 16.440001 18.216 22.664"
         y="0"
         sodipodi:role="line"
         id="tspan120">Missing</tspan></text>
    <text
       xml:space="preserve"
       transform="matrix(1,0,0,-1,303.1445,675.0771)"
       style="font-variant:normal;font-weight:normal;font-stretch:normal;font-size:8px;font-family:Helvetica;-inkscape-font-specification:Helvetica;writing-mode:lr-tb;fill:#fe6100;fill-opacity:1;fill-rule:nonzero;stroke:none"
       id="text126"><tspan
         x="0 5.776 10.224 12 16.448 20.448 24.896 29.344 33.344002"
         y="0"
         sodipodi:role="line"
         id="tspan124">Relevance</tspan></text>
    <text
       xml:space="preserve"
       transform="matrix(0.999525,0,0,-1,263.7788,684.0742)"
       style="font-variant:normal;font-weight:normal;font-stretch:normal;font-size:8px;font-family:Helvetica;-inkscape-font-specification:Helvetica;writing-mode:lr-tb;fill:#fe6100;fill-opacity:1;fill-rule:nonzero;stroke:none"
       id="text130"><tspan
         x="0 5.776 10.224 14.224 16 20.448 24.896"
         y="0"
         sodipodi:role="line"
         id="tspan128">Unclear</tspan></text>
    <text
       xml:space="preserve"
       transform="matrix(1,0,0,-1,262.2114,675.0771)"
       style="font-variant:normal;font-weight:normal;font-stretch:normal;font-size:8px;font-family:Helvetica;-inkscape-font-specification:Helvetica;writing-mode:lr-tb;fill:#000000;fill-opacity:1;fill-rule:nonzero;stroke:none"
       id="text138"><tspan
         x="0 6.664 11.112 15.56 20.007999 21.784 26.232"
         y="0"
         sodipodi:role="line"
         id="tspan132">Meaning</tspan><tspan
         x="139.584 145.36 149.808 152.032 154.696 156.472 163.136 167.584 172.032 174.256 178.70399"
         y="-9"
         sodipodi:role="line"
         id="tspan134">Detrimental</tspan><tspan
         x="137.8 144.024 146.688 148.912 153.36 157.808 162.256 164.92 169.368 173.81599 178.26401"
         y="0"
         sodipodi:role="line"
         id="tspan136">Orthography</tspan></text>
    <text
       xml:space="preserve"
       transform="matrix(1,0,0,-1,263.0354,756.7171)"
       style="font-variant:normal;font-weight:bold;font-stretch:normal;font-size:8px;font-family:Helvetica;-inkscape-font-specification:Helvetica-Bold;writing-mode:lr-tb;fill:#785ef0;fill-opacity:1;fill-rule:nonzero;stroke:none"
       id="text150"><tspan
         x="0 2.224 7.112 11.56 16.448 21.336 24.448 29.336 34.223999 37.332001 39.556 44.004002 46.667999 51.116001 56.004002 60.452 64.900002"
         y="0"
         sodipodi:role="line"
         id="tspan140">Inappropriateness</tspan><tspan
         x="176.752 182.976 185.64 190.528 194.976"
         y="33.759998"
         sodipodi:role="line"
         id="tspan142">Other</tspan><tspan
         x="170.744 176.52 180.968 185.416 189.864 194.752 199.64"
         y="42.759998"
         sodipodi:role="line"
         id="tspan144">Reasons</tspan><tspan
         x="-70.543999 -63.880001 -61.655998 -57.208 -52.759998 -50.535999 -45.647999"
         y="33.759998"
         sodipodi:role="line"
         id="tspan146">Missing</tspan><tspan
         x="-80.087997 -74.311996 -69.424004 -62.312 -55.200001 -52.976002 -50.312 -43.200001 -38.751999 -33.888"
         y="42.759998"
         sodipodi:role="line"
         id="tspan148">Commitment</tspan></text>
    <text
       xml:space="preserve"
       transform="matrix(0.999525,0,0,-1,311.1152,722.9639)"
       style="font-variant:normal;font-weight:bold;font-stretch:normal;font-size:8px;font-family:Helvetica;-inkscape-font-specification:Helvetica-Bold;writing-mode:lr-tb;fill:#fe6100;fill-opacity:1;fill-rule:nonzero;stroke:none"
       id="text156"><tspan
         x="0 6.664 8.8879995 13.336 17.784 20.007999 24.896"
         y="0"
         sodipodi:role="line"
         id="tspan152">Missing</tspan><tspan
         x="-8.4399996 -6.2160001 -1.3279999 1.336 5.7839999 8.0080004 10.232 12.456 17.344 19.568001 24.455999 26.68 28.903999 31.128 33.792"
         y="9"
         sodipodi:role="line"
         id="tspan154">Intelligibility</tspan></text>
    <text
       xml:space="preserve"
       transform="matrix(1,0,0,-1,102.2021,722.9639)"
       style="font-variant:normal;font-weight:bold;font-stretch:normal;font-size:8px;font-family:Helvetica;-inkscape-font-specification:Helvetica-Bold;writing-mode:lr-tb;fill:#dc267f;fill-opacity:1;fill-rule:nonzero;stroke:none"
       id="text162"><tspan
         x="0 4.888 9.776 14.224 16.448"
         y="0"
         sodipodi:role="line"
         id="tspan158">Toxic</tspan><tspan
         x="-7.7600002 -2.424 4.6880002 9.5760002 12.24 14.44 19.327999 24.216"
         y="9"
         sodipodi:role="line"
         id="tspan160">Emotions</tspan></text>
    <path
       d="m 519.605,732.516 h -12.956 v 14.579 h 12.956 z"
       style="fill:#ffffff;fill-opacity:1;fill-rule:nonzero;stroke:none"
       id="path164" />
    <path
       d="M 519.606,694.131 H 506.65 v 14.298 h 12.956 z"
       style="fill:#ffffff;fill-opacity:1;fill-rule:nonzero;stroke:none"
       id="path166" />
    <text
       xml:space="preserve"
       transform="matrix(1,0,0,-1,501.8442,699.644)"
       style="font-variant:normal;font-weight:normal;font-stretch:normal;font-size:7px;font-family:Helvetica;-inkscape-font-specification:Helvetica;writing-mode:lr-tb;fill:#1d1d1b;fill-opacity:1;fill-rule:nonzero;stroke:none"
       id="text172"><tspan
         x="0 3.892 7.7839999 13.615 17.507 19.061001"
         y="0"
         sodipodi:role="line"
         id="tspan168">namely</tspan><tspan
         x="1.554 5.4460001 9.3380003 13.23 15.176 17.122"
         y="-38.255001"
         sodipodi:role="line"
         id="tspan170">due to</tspan></text>
    <g
       id="g174"
       transform="translate(207.3923,739.8527)">
      <path
         d="M 0,0 V -4.072"
         style="fill:none;stroke:#3c3c3c;stroke-width:0.5;stroke-linecap:butt;stroke-linejoin:miter;stroke-miterlimit:4;stroke-dasharray:none;stroke-opacity:1"
         id="path176" />
    </g>
    <g
       id="g178"
       transform="translate(205.8964,736.2189)">
      <path
         d="M 0,0 1.496,-2.59 2.992,0 Z"
         style="fill:#3c3c3c;fill-opacity:1;fill-rule:nonzero;stroke:none"
         id="path180" />
    </g>
    <g
       id="g182"
       transform="translate(325.9995,739.8527)">
      <path
         d="M 0,0 V -4.072"
         style="fill:none;stroke:#3c3c3c;stroke-width:0.5;stroke-linecap:butt;stroke-linejoin:miter;stroke-miterlimit:4;stroke-dasharray:none;stroke-opacity:1"
         id="path184" />
    </g>
    <g
       id="g186"
       transform="translate(324.5036,736.2189)">
      <path
         d="M 0,0 1.496,-2.59 2.992,0 Z"
         style="fill:#3c3c3c;fill-opacity:1;fill-rule:nonzero;stroke:none"
         id="path188" />
    </g>
    <g
       id="g190"
       transform="translate(450.4603,739.8527)">
      <path
         d="M 0,0 V -4.072"
         style="fill:none;stroke:#3c3c3c;stroke-width:0.5;stroke-linecap:butt;stroke-linejoin:miter;stroke-miterlimit:4;stroke-dasharray:none;stroke-opacity:1"
         id="path192" />
    </g>
    <g
       id="g194"
       transform="translate(448.9644,736.2189)">
      <path
         d="M 0,0 1.496,-2.59 2.992,0 Z"
         style="fill:#3c3c3c;fill-opacity:1;fill-rule:nonzero;stroke:none"
         id="path196" />
    </g>
    <g
       id="g198"
       transform="translate(90.1456,701.8483)">
      <path
         d="M 0,0 V -4.072"
         style="fill:none;stroke:#3c3c3c;stroke-width:0.5;stroke-linecap:butt;stroke-linejoin:miter;stroke-miterlimit:4;stroke-dasharray:none;stroke-opacity:1"
         id="path200" />
    </g>
    <g
       id="g202"
       transform="translate(88.6497,698.2145)">
      <path
         d="M 0,0 1.496,-2.59 2.992,0 Z"
         style="fill:#3c3c3c;fill-opacity:1;fill-rule:nonzero;stroke:none"
         id="path204" />
    </g>
    <g
       id="g206"
       transform="translate(134.9926,701.8483)">
      <path
         d="M 0,0 V -4.072"
         style="fill:none;stroke:#3c3c3c;stroke-width:0.5;stroke-linecap:butt;stroke-linejoin:miter;stroke-miterlimit:4;stroke-dasharray:none;stroke-opacity:1"
         id="path208" />
    </g>
    <g
       id="g210"
       transform="translate(133.4967,698.2145)">
      <path
         d="M 0,0 1.496,-2.59 2.992,0 Z"
         style="fill:#3c3c3c;fill-opacity:1;fill-rule:nonzero;stroke:none"
         id="path212" />
    </g>
    <g
       id="g214"
       transform="translate(184.4713,701.8483)">
      <path
         d="M 0,0 V -4.072"
         style="fill:none;stroke:#3c3c3c;stroke-width:0.5;stroke-linecap:butt;stroke-linejoin:miter;stroke-miterlimit:4;stroke-dasharray:none;stroke-opacity:1"
         id="path216" />
    </g>
    <g
       id="g218"
       transform="translate(182.9754,698.2145)">
      <path
         d="M 0,0 1.496,-2.59 2.992,0 Z"
         style="fill:#3c3c3c;fill-opacity:1;fill-rule:nonzero;stroke:none"
         id="path220" />
    </g>
    <g
       id="g222"
       transform="translate(234.3327,701.8483)">
      <path
         d="M 0,0 V -4.072"
         style="fill:none;stroke:#3c3c3c;stroke-width:0.5;stroke-linecap:butt;stroke-linejoin:miter;stroke-miterlimit:4;stroke-dasharray:none;stroke-opacity:1"
         id="path224" />
    </g>
    <g
       id="g226"
       transform="translate(232.8368,698.2145)">
      <path
         d="M 0,0 1.496,-2.59 2.992,0 Z"
         style="fill:#3c3c3c;fill-opacity:1;fill-rule:nonzero;stroke:none"
         id="path228" />
    </g>
    <g
       id="g230"
       transform="translate(277.5554,701.8483)">
      <path
         d="M 0,0 V -4.072"
         style="fill:none;stroke:#3c3c3c;stroke-width:0.5;stroke-linecap:butt;stroke-linejoin:miter;stroke-miterlimit:4;stroke-dasharray:none;stroke-opacity:1"
         id="path232" />
    </g>
    <g
       id="g234"
       transform="translate(276.0595,698.2145)">
      <path
         d="M 0,0 1.496,-2.59 2.992,0 Z"
         style="fill:#3c3c3c;fill-opacity:1;fill-rule:nonzero;stroke:none"
         id="path236" />
    </g>
    <g
       id="g238"
       transform="translate(325.9995,701.8486)">
      <path
         d="M 0,0 V -4.072"
         style="fill:none;stroke:#3c3c3c;stroke-width:0.5;stroke-linecap:butt;stroke-linejoin:miter;stroke-miterlimit:4;stroke-dasharray:none;stroke-opacity:1"
         id="path240" />
    </g>
    <g
       id="g242"
       transform="translate(324.5036,698.2148)">
      <path
         d="M 0,0 1.496,-2.59 2.992,0 Z"
         style="fill:#3c3c3c;fill-opacity:1;fill-rule:nonzero;stroke:none"
         id="path244" />
    </g>
    <g
       id="g246"
       transform="translate(370.4893,701.8483)">
      <path
         d="M 0,0 V -4.072"
         style="fill:none;stroke:#3c3c3c;stroke-width:0.5;stroke-linecap:butt;stroke-linejoin:miter;stroke-miterlimit:4;stroke-dasharray:none;stroke-opacity:1"
         id="path248" />
    </g>
    <g
       id="g250"
       transform="translate(368.9933,698.2145)">
      <path
         d="M 0,0 1.496,-2.59 2.992,0 Z"
         style="fill:#3c3c3c;fill-opacity:1;fill-rule:nonzero;stroke:none"
         id="path252" />
    </g>
    <g
       id="g254"
       transform="translate(422.247,701.8483)">
      <path
         d="M 0,0 V -4.072"
         style="fill:none;stroke:#3c3c3c;stroke-width:0.5;stroke-linecap:butt;stroke-linejoin:miter;stroke-miterlimit:4;stroke-dasharray:none;stroke-opacity:1"
         id="path256" />
    </g>
    <g
       id="g258"
       transform="translate(420.7512,698.2145)">
      <path
         d="M 0,0 1.496,-2.59 2.992,0 Z"
         style="fill:#3c3c3c;fill-opacity:1;fill-rule:nonzero;stroke:none"
         id="path260" />
    </g>
    <g
       id="g262"
       transform="translate(478.013,701.8483)">
      <path
         d="M 0,0 V -4.072"
         style="fill:none;stroke:#3c3c3c;stroke-width:0.5;stroke-linecap:butt;stroke-linejoin:miter;stroke-miterlimit:4;stroke-dasharray:none;stroke-opacity:1"
         id="path264" />
    </g>
    <g
       id="g266"
       transform="translate(476.5171,698.2145)">
      <path
         d="M 0,0 1.496,-2.59 2.992,0 Z"
         style="fill:#3c3c3c;fill-opacity:1;fill-rule:nonzero;stroke:none"
         id="path268" />
    </g>
  </g>
</svg>
