<?xml version="1.0" encoding="UTF-8"?>
<svg id="Ebene_2" data-name="Ebene 2" xmlns="http://www.w3.org/2000/svg" viewBox="0 0 453.47 100.98">
  <defs>
    <style>
      .cls-1 {
        fill: #fff;
      }

      .cls-2 {
        fill: #ffb000;
      }

      .cls-3 {
        fill: #1d1d1b;
        font-family: Helvetica, Helvetica;
        font-size: 7px;
      }

      .cls-4 {
        fill: #dc267f;
      }

      .cls-5 {
        fill: #648fff;
      }

      .cls-5, .cls-6 {
        font-family: Helvetica-Bold, Helvetica;
        font-size: 8px;
        font-weight: 700;
      }

      .cls-7 {
        fill: #785ef0;
      }

      .cls-8 {
        fill: #e8e8e8;
      }

      .cls-9 {
        fill: none;
        stroke: #3c3c3c;
        stroke-width: .5px;
      }

      .cls-10 {
        fill: #fe6100;
      }

      .cls-11 {
        fill: #3c3c3c;
      }
    </style>
  </defs>
  <g id="Ebene_1-2" data-name="Ebene 1">
    <g>
      <line class="cls-9" x1="442.19" y1="98.83" x2="442.19" y2="0"/>
      <polygon class="cls-11" points="443.68 98.39 442.19 100.98 440.69 98.39 443.68 98.39"/>
    </g>
    <line class="cls-9" x1="226.77" y1="25.69" x2="226.77" y2="31.41"/>
    <line class="cls-9" x1="41.71" y1="63.65" x2="41.71" y2="69.49"/>
    <line class="cls-9" x1="136.45" y1="63.96" x2="136.45" y2="69.66"/>
    <line class="cls-9" x1="255.06" y1="63.96" x2="255.06" y2="69.81"/>
    <line class="cls-9" x1="379.52" y1="63.96" x2="379.52" y2="69.68"/>
    <g>
      <line class="cls-9" x1="41.71" y1="31.17" x2="41.71" y2="35.24"/>
      <polygon class="cls-11" points="40.21 34.81 41.71 37.4 43.2 34.81 40.21 34.81"/>
    </g>
    <line class="cls-9" x1="41.46" y1="31.17" x2="379.77" y2="31.17"/>
    <line class="cls-9" x1="18.97" y1="69.43" x2="64.3" y2="69.43"/>
    <line class="cls-9" x1="113.28" y1="69.43" x2="163.64" y2="69.43"/>
    <line class="cls-9" x1="351.06" y1="69.43" x2="407.32" y2="69.43"/>
    <line class="cls-9" x1="206.36" y1="69.43" x2="299.8" y2="69.43"/>
    <rect class="cls-8" x=".07" width="432.06" height="24.09"/>
    <rect class="cls-8" x=".07" y="76.51" width="38.27" height="24.09"/>
    <rect class="cls-8" x="44.64" y="76.51" width="38.83" height="24.09"/>
    <rect class="cls-8" x="89.76" y="76.89" width="47.53" height="24.09"/>
    <rect class="cls-8" x="143.59" y="76.89" width="39.59" height="24.09"/>
    <rect class="cls-8" x="189.52" y="76.89" width="34.2" height="24.09"/>
    <rect class="cls-8" x="230.01" y="76.89" width="42.19" height="24.09"/>
    <rect class="cls-8" x="278.5" y="76.89" width="42.11" height="24.09"/>
    <rect class="cls-8" x="326.9" y="76.89" width="48.81" height="24.09"/>
    <rect class="cls-8" x="382.01" y="76.89" width="50.13" height="24.09"/>
    <rect class="cls-8" x="189.52" y="38.51" width="131.09" height="24.09"/>
    <rect class="cls-8" x="326.9" y="38.51" width="105.23" height="24.09"/>
    <rect class="cls-8" x="89.71" y="38.51" width="93.47" height="24.09"/>
    <rect class="cls-8" y="38.51" width="83.42" height="24.09"/>
    <g>
      <path d="m393.99,81.3h2.67c.61,0,1.07.13,1.39.4s.48.65.48,1.16-.17.9-.5,1.18c-.08.07-.17.13-.27.19l.13.06c.35.2.53.54.54,1.01l.03,1.05c0,.17.03.3.07.37s.11.14.23.2v.12h-.96s-.04-.17-.06-.37c-.02-.2-.04-.42-.05-.66l-.02-.45c-.01-.36-.1-.61-.26-.76s-.43-.23-.8-.23h-1.84v2.48h-.78v-5.74Zm.78,2.59h1.92c.36,0,.62-.08.79-.24s.25-.41.25-.75-.09-.57-.26-.73-.45-.23-.83-.23h-1.86v1.94Z"/>
      <path d="m401.28,87.16c-.59,0-1.06-.19-1.39-.56s-.51-.89-.51-1.55c0-.7.18-1.26.54-1.68s.84-.62,1.44-.62c.55,0,.99.2,1.32.61s.5.94.5,1.6v.25h-3.06c.03.42.12.73.29.95.2.27.51.4.94.4.27,0,.5-.08.7-.23s.32-.34.37-.58h.7c-.1.46-.31.81-.62,1.05s-.71.36-1.21.36Zm1.17-2.52c-.02-.39-.12-.69-.29-.91-.19-.24-.47-.36-.84-.36s-.67.14-.89.41c-.17.22-.28.5-.32.85h2.33Z"/>
      <path d="m405.13,87.16c-.41,0-.73-.11-.97-.33s-.36-.51-.36-.89.11-.67.34-.89.55-.36.99-.41l.96-.12c.08,0,.15-.02.22-.04.09-.02.16-.07.21-.14s.07-.16.07-.27v-.04c0-.22-.08-.4-.25-.53s-.41-.19-.71-.19-.51.07-.68.2-.26.33-.29.6h-.65c.03-.46.2-.8.48-1.03s.7-.35,1.24-.35c.51,0,.89.11,1.16.33s.4.54.4.96v2.3c0,.07.02.13.06.17s.1.06.17.06c.02,0,.05,0,.09,0s.08-.01.13-.02v.51c-.07.03-.14.05-.21.06s-.14.02-.19.02c-.27,0-.46-.07-.58-.22-.08-.1-.13-.23-.17-.41-.05.06-.11.13-.18.19-.35.31-.78.47-1.29.47Zm1.46-1.77v-.45c-.13.06-.27.11-.43.13l-.64.09c-.34.05-.59.13-.74.24s-.23.26-.23.45c0,.23.06.41.19.54s.31.19.54.19c.37,0,.68-.1.94-.3.17-.14.29-.3.35-.48.01-.03.02-.09.02-.16,0-.08.01-.16.01-.25Z"/>
      <path d="m410.87,84.08c-.02-.23-.12-.41-.28-.54s-.39-.19-.68-.19-.51.05-.67.15-.23.25-.23.45c0,.15.05.26.16.34.11.08.32.15.64.23l.73.17c.41.1.7.24.87.41.17.17.26.41.26.72,0,.41-.15.74-.45.98s-.7.36-1.21.36c-.59,0-1.03-.12-1.32-.35s-.45-.6-.48-1.1h.68c.03.3.14.51.31.64s.44.2.81.2c.32,0,.55-.06.72-.18.16-.12.24-.29.24-.52,0-.15-.05-.26-.16-.33s-.32-.15-.64-.23l-.73-.17c-.39-.09-.67-.23-.84-.39-.17-.17-.25-.4-.25-.7,0-.39.14-.71.42-.94.28-.23.66-.35,1.14-.35s.87.12,1.16.36c.29.24.44.56.46.98h-.66Z"/>
      <path d="m412.78,86.55c-.36-.41-.54-.94-.54-1.6s.18-1.2.54-1.6.83-.61,1.4-.61,1.05.2,1.41.61.54.94.54,1.6-.18,1.19-.54,1.6-.83.61-1.41.61-1.05-.2-1.4-.61Zm2.29-.43c.22-.29.33-.68.33-1.17s-.11-.88-.33-1.17-.51-.44-.88-.44-.66.15-.88.44-.33.68-.33,1.17.11.88.33,1.17.51.43.88.43.66-.14.88-.43Z"/>
      <path d="m416.93,82.87h.67v.62l.16-.21c.3-.36.69-.54,1.14-.54s.82.12,1.07.38.38.61.38,1.07v2.86h-.7v-2.62c0-.37-.07-.63-.21-.79s-.37-.24-.69-.24c-.34,0-.61.13-.8.38s-.3.6-.3,1.04v2.24h-.7v-4.18Z"/>
      <path d="m390.66,93.94c0,.71-.2,1.26-.6,1.66s-.95.6-1.66.6-1.3-.19-1.68-.58-.58-.95-.58-1.69v-3.64h.78v3.58c0,.53.13.94.38,1.22s.62.42,1.11.42.85-.14,1.1-.42.38-.68.38-1.22v-3.58h.78v3.64Z"/>
      <path d="m391.8,91.86h.67v.62l.16-.21c.3-.36.69-.54,1.14-.54s.82.12,1.07.38.38.61.38,1.07v2.86h-.7v-2.62c0-.37-.07-.63-.21-.79s-.37-.24-.69-.24c-.34,0-.61.13-.8.38s-.3.6-.3,1.04v2.24h-.7v-4.18Z"/>
      <path d="m399.55,94.54c-.07.53-.26.93-.56,1.2s-.7.41-1.2.41c-.55,0-1-.2-1.33-.6s-.5-.94-.5-1.61.17-1.21.51-1.61.8-.6,1.38-.6c.5,0,.9.14,1.2.41s.46.65.48,1.13h-.68c-.03-.3-.13-.53-.31-.7s-.42-.25-.72-.25c-.35,0-.63.14-.83.43s-.3.68-.3,1.18c0,.53.09.93.28,1.2s.47.4.84.4c.27,0,.5-.09.69-.26s.31-.43.37-.75h.68Z"/>
      <path d="m400.27,90.3h.7v5.74h-.7v-5.74Z"/>
      <path d="m403.13,96.16c-.41,0-.73-.11-.97-.33s-.36-.51-.36-.89.11-.67.34-.89.55-.36.99-.41l.96-.12c.08,0,.15-.02.22-.04.09-.02.16-.07.21-.14s.07-.16.07-.27v-.04c0-.22-.08-.4-.25-.53s-.41-.19-.71-.19-.51.07-.68.2-.26.33-.29.6h-.65c.03-.46.2-.8.48-1.03s.7-.35,1.24-.35c.51,0,.89.11,1.16.33s.4.54.4.96v2.3c0,.07.02.13.06.17s.1.06.17.06c.02,0,.05,0,.09,0s.08-.01.13-.02v.51c-.07.03-.14.05-.21.06s-.14.02-.19.02c-.27,0-.46-.07-.58-.22-.08-.1-.13-.23-.17-.41-.05.06-.11.13-.18.19-.35.31-.78.47-1.29.47Zm1.46-1.77v-.45c-.13.06-.27.11-.43.13l-.64.09c-.34.05-.59.13-.74.24s-.23.26-.23.45c0,.23.06.41.19.54s.31.19.54.19c.37,0,.68-.1.94-.3.17-.14.29-.3.35-.48.01-.03.02-.09.02-.16,0-.08.01-.16.01-.25Z"/>
      <path d="m408.87,93.07c-.02-.23-.12-.41-.28-.54s-.39-.19-.68-.19-.51.05-.67.15-.23.25-.23.45c0,.15.05.26.16.34.11.08.32.15.64.23l.73.17c.41.1.7.24.87.41.17.17.26.41.26.72,0,.41-.15.74-.45.98s-.7.36-1.21.36c-.59,0-1.03-.12-1.32-.35s-.45-.6-.48-1.1h.68c.03.3.14.51.31.64s.44.2.81.2c.32,0,.55-.06.72-.18.16-.12.24-.29.24-.52,0-.15-.05-.26-.16-.33s-.32-.15-.64-.23l-.73-.17c-.39-.09-.67-.23-.84-.39-.17-.17-.25-.4-.25-.7,0-.39.14-.71.42-.94.28-.23.66-.35,1.14-.35s.87.12,1.16.36c.29.24.44.56.46.98h-.66Z"/>
      <path d="m412.87,93.07c-.02-.23-.12-.41-.28-.54s-.39-.19-.68-.19-.51.05-.67.15-.23.25-.23.45c0,.15.05.26.16.34.11.08.32.15.64.23l.73.17c.41.1.7.24.87.41.17.17.26.41.26.72,0,.41-.15.74-.45.98s-.7.36-1.21.36c-.59,0-1.03-.12-1.32-.35s-.45-.6-.48-1.1h.68c.03.3.14.51.31.64s.44.2.81.2c.32,0,.55-.06.72-.18.16-.12.24-.29.24-.52,0-.15-.05-.26-.16-.33s-.32-.15-.64-.23l-.73-.17c-.39-.09-.67-.23-.84-.39-.17-.17-.25-.4-.25-.7,0-.39.14-.71.42-.94.28-.23.66-.35,1.14-.35s.87.12,1.16.36c.29.24.44.56.46.98h-.66Z"/>
      <path d="m414.5,90.3h.72v.8h-.72v-.8Zm0,1.56h.7v4.18h-.7v-4.18Z"/>
      <path d="m417.13,92.44v3.6h-.7v-3.6h-.58v-.58h.58v-.71c0-.31.09-.54.27-.7s.46-.23.82-.23h.31v.64h-.28c-.14-.01-.24.03-.31.12s-.11.21-.11.37v.51h.7v.58h-.7Z"/>
      <path d="m418.5,90.3h.72v.8h-.72v-.8Zm0,1.56h.7v4.18h-.7v-4.18Z"/>
      <path d="m421.96,96.16c-.59,0-1.06-.19-1.39-.56s-.51-.89-.51-1.55c0-.7.18-1.26.54-1.68s.84-.62,1.44-.62c.55,0,.99.2,1.32.61s.5.94.5,1.6v.25h-3.06c.03.42.12.73.29.95.2.27.51.4.94.4.27,0,.5-.08.7-.23s.32-.34.37-.58h.7c-.1.46-.31.81-.62,1.05s-.71.36-1.21.36Zm1.17-2.52c-.02-.39-.12-.69-.29-.91-.19-.24-.47-.36-.84-.36s-.67.14-.89.41c-.17.22-.28.5-.32.85h2.33Z"/>
      <path d="m426.3,96.16c-.56,0-1-.21-1.34-.63s-.5-.98-.5-1.69c0-.63.16-1.13.48-1.52s.74-.58,1.25-.58.92.22,1.22.65l.05.08v-2.17h.7v5.74h-.65v-.57l-.09.13c-.29.37-.67.55-1.14.55Zm.04-3.79c-.39,0-.68.13-.86.38s-.27.65-.27,1.2c0,.52.1.91.29,1.19s.48.42.84.42c.34,0,.62-.13.82-.38s.31-.6.31-1.02c0-.57-.1-1.01-.29-1.32s-.48-.46-.84-.46Z"/>
    </g>
    <g>
      <path class="cls-4" d="m1.89,87.07v-5.74h4.2v.69h-3.42v1.75h3.12v.69h-3.12v1.93h3.46v.69H1.89Z"/>
      <path class="cls-4" d="m8.11,84.91l-1.41-2.02h.91l.96,1.49.97-1.49h.87l-1.41,2.04,1.45,2.14h-.88l-1.04-1.59-1.03,1.59h-.89l1.48-2.16Z"/>
      <path class="cls-4" d="m14.35,85.56c-.07.53-.26.93-.56,1.2s-.7.41-1.2.41c-.55,0-1-.2-1.33-.6s-.5-.94-.5-1.61.17-1.21.51-1.61.8-.6,1.38-.6c.5,0,.9.14,1.2.41s.46.65.48,1.13h-.68c-.03-.3-.13-.53-.31-.7s-.42-.25-.72-.25c-.35,0-.63.14-.83.43s-.3.68-.3,1.18c0,.53.09.93.28,1.2s.47.4.84.4c.27,0,.5-.09.69-.26s.31-.43.37-.75h.68Z"/>
      <path class="cls-4" d="m16.76,87.18c-.59,0-1.06-.19-1.39-.56s-.51-.89-.51-1.55c0-.7.18-1.26.54-1.68s.84-.62,1.44-.62c.55,0,.99.2,1.32.61s.5.94.5,1.6v.25h-3.06c.03.42.12.73.29.95.2.27.51.4.94.4.27,0,.5-.08.7-.23.2-.15.32-.34.37-.58h.7c-.1.46-.31.81-.62,1.05s-.71.36-1.21.36Zm1.17-2.52c-.02-.39-.12-.69-.29-.91-.19-.24-.47-.36-.84-.36s-.67.14-.89.41c-.17.22-.28.5-.32.85h2.33Z"/>
      <path class="cls-4" d="m21.9,84.1c-.02-.23-.12-.41-.28-.54s-.39-.19-.68-.19-.51.05-.67.15-.23.25-.23.45c0,.15.05.26.16.34s.32.15.64.23l.73.17c.41.1.7.24.87.41.17.17.26.41.26.72,0,.41-.15.74-.45.98s-.7.36-1.21.36c-.59,0-1.03-.12-1.32-.35s-.45-.6-.48-1.1h.68c.03.3.14.51.31.64.18.13.44.2.81.2.32,0,.55-.06.72-.18.16-.12.24-.29.24-.52,0-.15-.05-.26-.16-.33-.11-.08-.32-.15-.64-.23l-.73-.17c-.39-.09-.67-.23-.84-.39-.17-.17-.25-.4-.25-.7,0-.39.14-.71.42-.94.28-.23.66-.35,1.14-.35s.87.12,1.16.36c.29.24.44.56.46.98h-.66Z"/>
      <path class="cls-4" d="m25.9,84.1c-.02-.23-.12-.41-.28-.54s-.39-.19-.68-.19-.51.05-.67.15-.23.25-.23.45c0,.15.05.26.16.34s.32.15.64.23l.73.17c.41.1.7.24.87.41.17.17.26.41.26.72,0,.41-.15.74-.45.98s-.7.36-1.21.36c-.59,0-1.03-.12-1.32-.35s-.45-.6-.48-1.1h.68c.03.3.14.51.31.64.18.13.44.2.81.2.32,0,.55-.06.72-.18.16-.12.24-.29.24-.52,0-.15-.05-.26-.16-.33-.11-.08-.32-.15-.64-.23l-.73-.17c-.39-.09-.67-.23-.84-.39-.17-.17-.25-.4-.25-.7,0-.39.14-.71.42-.94.28-.23.66-.35,1.14-.35s.87.12,1.16.36c.29.24.44.56.46.98h-.66Z"/>
      <path class="cls-4" d="m27.52,81.33h.72v.8h-.72v-.8Zm0,1.56h.7v4.18h-.7v-4.18Z"/>
      <path class="cls-4" d="m28.82,82.89h.82l1.12,3.42h0l1.16-3.42h.78l-1.56,4.18h-.75l-1.56-4.18Z"/>
      <path class="cls-4" d="m34.98,87.18c-.59,0-1.06-.19-1.39-.56s-.51-.89-.51-1.55c0-.7.18-1.26.54-1.68s.84-.62,1.44-.62c.55,0,.99.2,1.32.61s.5.94.5,1.6v.25h-3.06c.03.42.12.73.29.95.2.27.51.4.94.4.27,0,.5-.08.7-.23.2-.15.32-.34.37-.58h.7c-.1.46-.31.81-.62,1.05s-.71.36-1.21.36Zm1.17-2.52c-.02-.39-.12-.69-.29-.91-.19-.24-.47-.36-.84-.36s-.67.14-.89.41c-.17.22-.28.5-.32.85h2.33Z"/>
      <path class="cls-4" d="m5.04,89.32h.78v5.74h-.78v-5.74Z"/>
      <path class="cls-4" d="m7.05,90.89h.67v.62l.16-.21c.3-.36.69-.54,1.14-.54s.82.12,1.07.38.38.61.38,1.07v2.86h-.7v-2.62c0-.37-.07-.63-.21-.79s-.37-.24-.69-.24c-.34,0-.61.13-.8.38s-.3.6-.3,1.04v2.24h-.7v-4.18Z"/>
      <path class="cls-4" d="m13.04,95.06c-.24.04-.41.05-.52.05-.31,0-.52-.07-.65-.2s-.19-.37-.19-.7v-2.75h-.58v-.57h.58v-1.17h.7v1.17h.66v.57h-.66v2.75c0,.09.04.17.11.22s.17.08.3.08h.25v.54Z"/>
      <path class="cls-4" d="m15.43,95.18c-.59,0-1.06-.19-1.39-.56s-.51-.89-.51-1.55c0-.7.18-1.26.54-1.68s.84-.62,1.44-.62c.55,0,.99.2,1.32.61s.5.94.5,1.6v.25h-3.06c.03.42.12.73.29.95.2.27.51.4.94.4.27,0,.5-.08.7-.23.2-.15.32-.34.37-.58h.7c-.1.46-.31.81-.62,1.05s-.71.36-1.21.36Zm1.17-2.52c-.02-.39-.12-.69-.29-.91-.19-.24-.47-.36-.84-.36s-.67.14-.89.41c-.17.22-.28.5-.32.85h2.33Z"/>
      <path class="cls-4" d="m18.17,90.89h.67v.62l.16-.21c.3-.36.69-.54,1.14-.54s.82.12,1.07.38.38.61.38,1.07v2.86h-.7v-2.62c0-.37-.07-.63-.21-.79s-.37-.24-.69-.24c-.34,0-.61.13-.8.38s-.3.6-.3,1.04v2.24h-.7v-4.18Z"/>
      <path class="cls-4" d="m25.02,92.1c-.02-.23-.12-.41-.28-.54s-.39-.19-.68-.19-.51.05-.67.15-.23.25-.23.45c0,.15.05.26.16.34s.32.15.64.23l.73.17c.41.1.7.24.87.41.17.17.26.41.26.72,0,.41-.15.74-.45.98s-.7.36-1.21.36c-.59,0-1.03-.12-1.32-.35s-.45-.6-.48-1.1h.68c.03.3.14.51.31.64.18.13.44.2.81.2.32,0,.55-.06.72-.18.16-.12.24-.29.24-.52,0-.15-.05-.26-.16-.33-.11-.08-.32-.15-.64-.23l-.73-.17c-.39-.09-.67-.23-.84-.39-.17-.17-.25-.4-.25-.7,0-.39.14-.71.42-.94.28-.23.66-.35,1.14-.35s.87.12,1.16.36c.29.24.44.56.46.98h-.66Z"/>
      <path class="cls-4" d="m26.64,89.32h.72v.8h-.72v-.8Zm0,1.56h.7v4.18h-.7v-4.18Z"/>
      <path class="cls-4" d="m29.93,95.06c-.24.04-.41.05-.52.05-.31,0-.52-.07-.65-.2s-.19-.37-.19-.7v-2.75h-.58v-.57h.58v-1.17h.7v1.17h.66v.57h-.66v2.75c0,.09.04.17.11.22s.17.08.3.08h.25v.54Z"/>
      <path class="cls-4" d="m32.42,95.2c-.24.64-.46,1.06-.65,1.26s-.48.3-.86.3c-.12,0-.24-.01-.34-.04v-.65c.11.04.24.06.4.06.16,0,.29-.06.4-.19.11-.13.23-.37.36-.73v-.07s.01,0,.01,0l-1.55-4.25h.8l1.12,3.46,1.13-3.46h.77l-1.59,4.32Z"/>
    </g>
    <g>
      <path class="cls-4" d="m46.93,86.57v-5.74h4.2v.69h-3.42v1.75h3.12v.69h-3.12v1.93h3.46v.69h-4.24Z"/>
      <path class="cls-4" d="m52.09,82.39h.67v.62l.14-.19c.31-.37.69-.56,1.13-.56.38,0,.67.11.89.33.1.1.18.21.23.34l.11-.14c.3-.35.66-.53,1.08-.53s.78.12,1.01.36.36.58.36,1.01v2.93h-.7v-2.7c0-.32-.06-.56-.2-.72s-.32-.25-.57-.25c-.3,0-.55.12-.73.36s-.27.56-.27.96v2.35h-.7v-2.86c0-.26-.06-.46-.18-.6s-.29-.21-.52-.21c-.31,0-.57.13-.77.4s-.3.61-.3,1.03v2.24h-.7v-4.18Z"/>
      <path class="cls-4" d="m59.06,86.07c-.36-.41-.54-.94-.54-1.6s.18-1.2.54-1.6.83-.61,1.4-.61,1.05.2,1.41.61.54.94.54,1.6-.18,1.19-.54,1.6-.83.61-1.41.61-1.05-.2-1.4-.61Zm2.29-.43c.22-.29.33-.68.33-1.17s-.11-.88-.33-1.17-.51-.44-.88-.44-.66.15-.88.44-.33.68-.33,1.17.11.88.33,1.17.51.43.88.43.66-.14.88-.43Z"/>
      <path class="cls-4" d="m64.74,86.56c-.24.04-.41.05-.52.05-.31,0-.52-.07-.65-.2s-.19-.37-.19-.7v-2.75h-.58v-.57h.58v-1.17h.7v1.17h.66v.57h-.66v2.75c0,.09.04.17.11.22s.17.08.3.08h.25v.54Z"/>
      <path class="cls-4" d="m65.45,80.83h.72v.8h-.72v-.8Zm0,1.56h.7v4.18h-.7v-4.18Z"/>
      <path class="cls-4" d="m67.51,86.07c-.36-.41-.54-.94-.54-1.6s.18-1.2.54-1.6.83-.61,1.4-.61,1.05.2,1.41.61.54.94.54,1.6-.18,1.19-.54,1.6-.83.61-1.41.61-1.05-.2-1.4-.61Zm2.29-.43c.22-.29.33-.68.33-1.17s-.11-.88-.33-1.17-.51-.44-.88-.44-.66.15-.88.44-.33.68-.33,1.17.11.88.33,1.17.51.43.88.43.66-.14.88-.43Z"/>
      <path class="cls-4" d="m71.66,82.39h.67v.62l.16-.21c.3-.36.69-.54,1.14-.54s.82.12,1.07.38.38.61.38,1.07v2.86h-.7v-2.62c0-.37-.07-.63-.21-.79s-.37-.24-.69-.24c-.34,0-.61.13-.8.38s-.3.6-.3,1.04v2.24h-.7v-4.18Z"/>
      <path class="cls-4" d="m77.21,86.68c-.41,0-.73-.11-.97-.33s-.36-.51-.36-.89.11-.67.34-.89.55-.36.99-.41l.96-.12c.08,0,.15-.02.22-.04.09-.02.16-.07.21-.14s.07-.16.07-.27v-.04c0-.22-.08-.4-.25-.53s-.4-.19-.71-.19-.52.07-.68.2-.26.33-.29.6h-.65c.03-.46.2-.8.48-1.03s.7-.35,1.24-.35c.51,0,.89.11,1.16.33s.4.54.4.96v2.3c0,.07.02.13.06.17s.1.06.17.06c.02,0,.05,0,.09,0s.08-.01.13-.02v.51c-.07.03-.14.05-.21.06s-.14.02-.19.02c-.27,0-.46-.07-.58-.22-.08-.1-.13-.23-.17-.41-.05.06-.11.13-.18.19-.35.31-.78.47-1.29.47Zm1.46-1.77v-.45c-.13.06-.27.11-.43.13l-.64.09c-.34.05-.59.13-.74.24s-.23.26-.23.45c0,.23.06.41.19.54s.31.19.54.19c.37,0,.68-.1.94-.3.17-.14.29-.3.35-.48.01-.03.02-.09.02-.16,0-.08.01-.16.01-.25Z"/>
      <path class="cls-4" d="m80.57,80.83h.7v5.74h-.7v-5.74Z"/>
      <path class="cls-4" d="m46.66,89.82h2.36c.73,0,1.31.26,1.74.78s.65,1.22.65,2.1-.22,1.57-.66,2.09-1.04.78-1.79.78h-2.3v-5.74Zm.78,5.08h1.42c.56,0,.99-.19,1.29-.57s.46-.93.46-1.63-.15-1.25-.44-1.63-.71-.58-1.24-.58h-1.49v4.41Z"/>
      <path class="cls-4" d="m54.01,95.68c-.59,0-1.06-.19-1.39-.56s-.51-.89-.51-1.55c0-.7.18-1.26.54-1.68s.84-.62,1.44-.62c.55,0,.99.2,1.32.61s.5.94.5,1.6v.25h-3.06c.03.42.12.73.29.95.2.27.51.4.94.4.27,0,.5-.08.7-.23.2-.15.32-.34.37-.58h.7c-.1.46-.31.81-.62,1.05s-.71.36-1.21.36Zm1.17-2.52c-.02-.39-.12-.69-.29-.91-.19-.24-.47-.36-.84-.36s-.67.14-.89.41c-.17.22-.28.5-.32.85h2.33Z"/>
      <path class="cls-4" d="m60.06,94.06c-.07.53-.26.93-.56,1.2s-.7.41-1.2.41c-.55,0-1-.2-1.33-.6s-.5-.94-.5-1.61.17-1.21.51-1.61.8-.6,1.38-.6c.5,0,.9.14,1.2.41s.46.65.48,1.13h-.68c-.03-.3-.13-.53-.31-.7s-.42-.25-.72-.25c-.35,0-.63.14-.83.43s-.3.68-.3,1.18c0,.53.09.93.28,1.2s.47.4.84.4c.27,0,.5-.09.69-.26s.31-.43.37-.75h.68Z"/>
      <path class="cls-4" d="m62.46,95.68c-.59,0-1.06-.19-1.39-.56s-.51-.89-.51-1.55c0-.7.18-1.26.54-1.68s.84-.62,1.44-.62c.55,0,.99.2,1.32.61s.5.94.5,1.6v.25h-3.06c.03.42.12.73.29.95.2.27.51.4.94.4.27,0,.5-.08.7-.23.2-.15.32-.34.37-.58h.7c-.1.46-.31.81-.62,1.05s-.71.36-1.21.36Zm1.17-2.52c-.02-.39-.12-.69-.29-.91-.19-.24-.47-.36-.84-.36s-.67.14-.89.41c-.17.22-.28.5-.32.85h2.33Z"/>
      <path class="cls-4" d="m65.15,91.39h.67v.59l.04-.05c.3-.45.7-.67,1.19-.67.55,0,.98.19,1.3.56s.48.88.48,1.53c0,.73-.16,1.3-.48,1.71s-.77.62-1.34.62c-.47,0-.85-.18-1.12-.54l-.02-.03v2.11h-.7v-5.83Zm1.82,3.68c.37,0,.65-.14.84-.42s.29-.68.29-1.21-.09-.91-.27-1.16-.46-.38-.84-.38-.67.14-.85.43-.27.73-.27,1.35c0,.45.1.79.29,1.03s.47.36.82.36Z"/>
      <path class="cls-4" d="m71.19,95.56c-.24.04-.41.05-.52.05-.31,0-.52-.07-.65-.2s-.19-.37-.19-.7v-2.75h-.58v-.57h.58v-1.17h.7v1.17h.66v.57h-.66v2.75c0,.09.04.17.11.22s.17.08.3.08h.25v.54Z"/>
      <path class="cls-4" d="m71.9,89.82h.72v.8h-.72v-.8Zm0,1.56h.7v4.18h-.7v-4.18Z"/>
      <path class="cls-4" d="m73.96,95.07c-.36-.41-.54-.94-.54-1.6s.18-1.2.54-1.6.83-.61,1.4-.61,1.05.2,1.41.61.54.94.54,1.6-.18,1.19-.54,1.6-.83.61-1.41.61-1.05-.2-1.4-.61Zm2.29-.43c.22-.29.33-.68.33-1.17s-.11-.88-.33-1.17-.51-.44-.88-.44-.66.15-.88.44-.33.68-.33,1.17.11.88.33,1.17.51.43.88.43.66-.14.88-.43Z"/>
      <path class="cls-4" d="m78.11,91.39h.67v.62l.16-.21c.3-.36.69-.54,1.14-.54s.82.12,1.07.38.38.61.38,1.07v2.86h-.7v-2.62c0-.37-.07-.63-.21-.79s-.37-.24-.69-.24c-.34,0-.61.13-.8.38s-.3.6-.3,1.04v2.24h-.7v-4.18Z"/>
    </g>
    <g>
      <path class="cls-7" d="m151.17,86.95h-.75v-5.74h1.12l1.64,4.89h0l1.63-4.89h1.12v5.74h-.75v-4.86h0l-1.62,4.86h-.75l-1.62-4.84h0v4.84Z"/>
      <path class="cls-7" d="m157.03,81.21h.72v.8h-.72v-.8Zm0,1.56h.7v4.18h-.7v-4.18Z"/>
      <path class="cls-7" d="m161.19,83.98c-.02-.23-.12-.41-.28-.54s-.39-.19-.68-.19-.51.05-.67.15-.23.25-.23.45c0,.15.05.26.16.34s.32.15.64.23l.73.17c.41.1.7.24.87.41.17.17.26.41.26.72,0,.41-.15.74-.45.98s-.7.36-1.21.36c-.59,0-1.03-.12-1.32-.35s-.45-.6-.48-1.1h.68c.03.3.14.51.31.64.18.13.44.2.81.2.32,0,.55-.06.72-.18.16-.12.24-.29.24-.52,0-.15-.05-.26-.16-.33-.11-.08-.32-.15-.64-.23l-.73-.17c-.39-.09-.67-.23-.84-.39-.17-.17-.25-.4-.25-.7,0-.39.14-.71.42-.94.28-.23.66-.35,1.14-.35s.87.12,1.16.36c.29.24.44.56.46.98h-.66Z"/>
      <path class="cls-7" d="m165.19,83.98c-.02-.23-.12-.41-.28-.54s-.39-.19-.68-.19-.51.05-.67.15-.23.25-.23.45c0,.15.05.26.16.34s.32.15.64.23l.73.17c.41.1.7.24.87.41.17.17.26.41.26.72,0,.41-.15.74-.45.98s-.7.36-1.21.36c-.59,0-1.03-.12-1.32-.35s-.45-.6-.48-1.1h.68c.03.3.14.51.31.64.18.13.44.2.81.2.32,0,.55-.06.72-.18.16-.12.24-.29.24-.52,0-.15-.05-.26-.16-.33-.11-.08-.32-.15-.64-.23l-.73-.17c-.39-.09-.67-.23-.84-.39-.17-.17-.25-.4-.25-.7,0-.39.14-.71.42-.94.28-.23.66-.35,1.14-.35s.87.12,1.16.36c.29.24.44.56.46.98h-.66Z"/>
      <path class="cls-7" d="m166.81,81.21h.72v.8h-.72v-.8Zm0,1.56h.7v4.18h-.7v-4.18Z"/>
      <path class="cls-7" d="m168.57,82.77h.67v.62l.16-.21c.3-.36.69-.54,1.14-.54s.82.12,1.07.38.38.61.38,1.07v2.86h-.7v-2.62c0-.37-.07-.63-.21-.79s-.37-.24-.69-.24c-.34,0-.61.13-.8.38s-.3.6-.3,1.04v2.24h-.7v-4.18Z"/>
      <path class="cls-7" d="m174.55,88.13c.4,0,.71-.13.92-.38s.32-.62.32-1.11v-.14h0c-.29.37-.67.56-1.13.56-.56,0-1.01-.21-1.34-.63s-.5-.98-.5-1.69c0-.63.16-1.13.49-1.52s.75-.58,1.28-.58.9.22,1.2.65l.05.07v-.6h.66v3.87c0,.71-.16,1.23-.48,1.57s-.8.51-1.45.51c-.47,0-.85-.11-1.13-.33s-.45-.54-.5-.95h.72c.04.22.14.4.3.52s.36.18.6.18Zm.14-4.85c-.39,0-.68.12-.86.38s-.27.65-.27,1.19c0,.51.1.91.29,1.19s.48.42.84.42c.34,0,.62-.13.82-.38s.31-.59.31-1.01c0-.59-.09-1.03-.28-1.33s-.47-.44-.85-.44Z"/>
      <path class="cls-7" d="m146.24,95.27c-.52-.56-.77-1.29-.77-2.19s.26-1.64.77-2.2,1.19-.84,2.02-.84,1.52.28,2.03.84.77,1.29.77,2.2-.26,1.63-.77,2.19-1.19.83-2.03.83-1.51-.28-2.02-.83Zm3.47-.5c.37-.43.55-.99.55-1.69s-.18-1.27-.55-1.7-.85-.65-1.45-.65-1.08.22-1.45.65-.55,1-.55,1.7.18,1.26.55,1.69.85.64,1.45.64,1.08-.21,1.45-.64Z"/>
      <path class="cls-7" d="m151.84,91.77h.67v.59l.04-.05c.3-.45.7-.67,1.19-.67.55,0,.98.19,1.3.56s.48.88.48,1.53c0,.73-.16,1.3-.48,1.71s-.77.62-1.34.62c-.47,0-.85-.18-1.12-.54l-.02-.03v2.11h-.7v-5.83Zm1.82,3.68c.37,0,.65-.14.84-.42s.29-.68.29-1.21-.09-.91-.27-1.16-.46-.38-.84-.38-.67.14-.85.43-.27.73-.27,1.35c0,.45.1.79.29,1.03s.47.36.82.36Z"/>
      <path class="cls-7" d="m158.05,96.06c-.59,0-1.06-.19-1.39-.56s-.51-.89-.51-1.55c0-.7.18-1.26.54-1.68s.84-.62,1.44-.62c.55,0,.99.2,1.32.61s.5.94.5,1.6v.25h-3.06c.03.42.12.73.29.95.2.27.51.4.94.4.27,0,.5-.08.7-.23.2-.15.32-.34.37-.58h.7c-.1.46-.31.81-.62,1.05s-.71.36-1.21.36Zm1.17-2.52c-.02-.39-.12-.69-.29-.91-.19-.24-.47-.36-.84-.36s-.67.14-.89.41c-.17.22-.28.5-.32.85h2.33Z"/>
      <path class="cls-7" d="m160.8,91.77h.67v.62l.16-.21c.3-.36.69-.54,1.14-.54s.82.12,1.07.38.38.61.38,1.07v2.86h-.7v-2.62c0-.37-.07-.63-.21-.79s-.37-.24-.69-.24c-.34,0-.61.13-.8.38s-.3.6-.3,1.04v2.24h-.7v-4.18Z"/>
      <path class="cls-7" d="m165.25,91.77h.67v.62l.16-.21c.3-.36.69-.54,1.14-.54s.82.12,1.07.38.38.61.38,1.07v2.86h-.7v-2.62c0-.37-.07-.63-.21-.79s-.37-.24-.69-.24c-.34,0-.61.13-.8.38s-.3.6-.3,1.04v2.24h-.7v-4.18Z"/>
      <path class="cls-7" d="m171.4,96.06c-.59,0-1.06-.19-1.39-.56s-.51-.89-.51-1.55c0-.7.18-1.26.54-1.68s.84-.62,1.44-.62c.55,0,.99.2,1.32.61s.5.94.5,1.6v.25h-3.06c.03.42.12.73.29.95.2.27.51.4.94.4.27,0,.5-.08.7-.23.2-.15.32-.34.37-.58h.7c-.1.46-.31.81-.62,1.05s-.71.36-1.21.36Zm1.17-2.52c-.02-.39-.12-.69-.29-.91-.19-.24-.47-.36-.84-.36s-.67.14-.89.41c-.17.22-.28.5-.32.85h2.33Z"/>
      <path class="cls-7" d="m176.54,92.98c-.02-.23-.12-.41-.28-.54s-.39-.19-.68-.19-.51.05-.67.15-.23.25-.23.45c0,.15.05.26.16.34s.32.15.64.23l.73.17c.41.1.7.24.87.41.17.17.26.41.26.72,0,.41-.15.74-.45.98s-.7.36-1.21.36c-.59,0-1.03-.12-1.32-.35s-.45-.6-.48-1.1h.68c.03.3.14.51.31.64.18.13.44.2.81.2.32,0,.55-.06.72-.18.16-.12.24-.29.24-.52,0-.15-.05-.26-.16-.33-.11-.08-.32-.15-.64-.23l-.73-.17c-.39-.09-.67-.23-.84-.39-.17-.17-.25-.4-.25-.7,0-.39.14-.71.42-.94.28-.23.66-.35,1.14-.35s.87.12,1.16.36c.29.24.44.56.46.98h-.66Z"/>
      <path class="cls-7" d="m180.54,92.98c-.02-.23-.12-.41-.28-.54s-.39-.19-.68-.19-.51.05-.67.15-.23.25-.23.45c0,.15.05.26.16.34s.32.15.64.23l.73.17c.41.1.7.24.87.41.17.17.26.41.26.72,0,.41-.15.74-.45.98s-.7.36-1.21.36c-.59,0-1.03-.12-1.32-.35s-.45-.6-.48-1.1h.68c.03.3.14.51.31.64.18.13.44.2.81.2.32,0,.55-.06.72-.18.16-.12.24-.29.24-.52,0-.15-.05-.26-.16-.33-.11-.08-.32-.15-.64-.23l-.73-.17c-.39-.09-.67-.23-.84-.39-.17-.17-.25-.4-.25-.7,0-.39.14-.71.42-.94.28-.23.66-.35,1.14-.35s.87.12,1.16.36c.29.24.44.56.46.98h-.66Z"/>
    </g>
    <g>
      <path class="cls-7" d="m101.31,86.95h-.75v-5.74h1.12l1.64,4.89h0l1.63-4.89h1.12v5.74h-.75v-4.86h0l-1.62,4.86h-.75l-1.62-4.84h0v4.84Z"/>
      <path class="cls-7" d="m107.17,81.21h.72v.8h-.72v-.8Zm0,1.56h.7v4.18h-.7v-4.18Z"/>
      <path class="cls-7" d="m111.33,83.98c-.02-.23-.12-.41-.28-.54s-.39-.19-.68-.19-.51.05-.67.15-.23.25-.23.45c0,.15.05.26.16.34s.32.15.64.23l.73.17c.41.1.7.24.87.41.17.17.26.41.26.72,0,.41-.15.74-.45.98s-.7.36-1.21.36c-.59,0-1.03-.12-1.32-.35s-.45-.6-.48-1.1h.68c.03.3.14.51.31.64.18.13.44.2.81.2.32,0,.55-.06.72-.18.16-.12.24-.29.24-.52,0-.15-.05-.26-.16-.33-.11-.08-.32-.15-.64-.23l-.73-.17c-.39-.09-.67-.23-.84-.39-.17-.17-.25-.4-.25-.7,0-.39.14-.71.42-.94.28-.23.66-.35,1.14-.35s.87.12,1.16.36c.29.24.44.56.46.98h-.66Z"/>
      <path class="cls-7" d="m115.33,83.98c-.02-.23-.12-.41-.28-.54s-.39-.19-.68-.19-.51.05-.67.15-.23.25-.23.45c0,.15.05.26.16.34s.32.15.64.23l.73.17c.41.1.7.24.87.41.17.17.26.41.26.72,0,.41-.15.74-.45.98s-.7.36-1.21.36c-.59,0-1.03-.12-1.32-.35s-.45-.6-.48-1.1h.68c.03.3.14.51.31.64.18.13.44.2.81.2.32,0,.55-.06.72-.18.16-.12.24-.29.24-.52,0-.15-.05-.26-.16-.33-.11-.08-.32-.15-.64-.23l-.73-.17c-.39-.09-.67-.23-.84-.39-.17-.17-.25-.4-.25-.7,0-.39.14-.71.42-.94.28-.23.66-.35,1.14-.35s.87.12,1.16.36c.29.24.44.56.46.98h-.66Z"/>
      <path class="cls-7" d="m116.95,81.21h.72v.8h-.72v-.8Zm0,1.56h.7v4.18h-.7v-4.18Z"/>
      <path class="cls-7" d="m118.71,82.77h.67v.62l.16-.21c.3-.36.69-.54,1.14-.54s.82.12,1.07.38.38.61.38,1.07v2.86h-.7v-2.62c0-.37-.07-.63-.21-.79s-.37-.24-.69-.24c-.34,0-.61.13-.8.38s-.3.6-.3,1.04v2.24h-.7v-4.18Z"/>
      <path class="cls-7" d="m124.69,88.13c.4,0,.71-.13.92-.38s.32-.62.32-1.11v-.14h0c-.29.37-.67.56-1.13.56-.56,0-1.01-.21-1.34-.63s-.5-.98-.5-1.69c0-.63.16-1.13.49-1.52s.75-.58,1.28-.58.9.22,1.2.65l.05.07v-.6h.66v3.87c0,.71-.16,1.23-.48,1.57s-.8.51-1.45.51c-.47,0-.85-.11-1.13-.33s-.45-.54-.5-.95h.72c.04.22.14.4.3.52s.36.18.6.18Zm.14-4.85c-.39,0-.68.12-.86.38s-.27.65-.27,1.19c0,.51.1.91.29,1.19s.48.42.84.42c.34,0,.62-.13.82-.38s.31-.59.31-1.01c0-.59-.09-1.03-.28-1.33s-.47-.44-.85-.44Z"/>
      <path class="cls-7" d="m95.63,91.87c-.03-.36-.18-.64-.43-.84-.25-.2-.59-.29-1.01-.29s-.77.08-1,.25-.34.42-.34.74c0,.22.08.39.23.5.15.11.45.22.91.32l1,.24c.54.13.92.32,1.15.57.23.25.35.6.35,1.05,0,.52-.2.93-.59,1.24-.4.3-.93.46-1.6.46-.75,0-1.34-.18-1.76-.53-.41-.35-.62-.82-.62-1.42v-.04h.71c.01.42.16.74.45.96.29.23.69.34,1.21.34.48,0,.84-.08,1.09-.25.25-.16.37-.4.37-.72,0-.28-.08-.48-.24-.61-.16-.13-.49-.25-.98-.37l-1-.24c-.51-.12-.87-.29-1.08-.5-.22-.21-.32-.51-.32-.89,0-.55.19-.98.56-1.31.37-.32.88-.48,1.51-.48s1.16.16,1.54.48c.38.32.59.77.61,1.34h-.71Z"/>
      <path class="cls-7" d="m99.08,96.06c-.59,0-1.06-.19-1.39-.56s-.51-.89-.51-1.55c0-.7.18-1.26.54-1.68s.84-.62,1.44-.62c.55,0,.99.2,1.32.61s.5.94.5,1.6v.25h-3.06c.03.42.12.73.29.95.2.27.51.4.94.4.27,0,.5-.08.7-.23.2-.15.32-.34.37-.58h.7c-.1.46-.31.81-.62,1.05s-.71.36-1.21.36Zm1.17-2.52c-.02-.39-.12-.69-.29-.91-.19-.24-.47-.36-.84-.36s-.67.14-.89.41c-.17.22-.28.5-.32.85h2.33Z"/>
      <path class="cls-7" d="m101.92,91.77h.67v.71c.06-.11.12-.21.19-.3.27-.36.59-.54.98-.54.06,0,.13.01.2.04v.72h-.14c-.38,0-.67.11-.88.34s-.31.55-.31.97v2.24h-.7v-4.18Z"/>
      <path class="cls-7" d="m104.5,90.2h.72v.8h-.72v-.8Zm0,1.56h.7v4.18h-.7v-4.18Z"/>
      <path class="cls-7" d="m106.56,95.45c-.36-.41-.54-.94-.54-1.6s.18-1.2.54-1.6.83-.61,1.4-.61,1.05.2,1.41.61.54.94.54,1.6-.18,1.19-.54,1.6-.83.61-1.41.61-1.05-.2-1.4-.61Zm2.29-.43c.22-.29.33-.68.33-1.17s-.11-.88-.33-1.17-.51-.44-.88-.44-.66.15-.88.44-.33.68-.33,1.17.11.88.33,1.17.51.43.88.43.66-.14.88-.43Z"/>
      <path class="cls-7" d="m111.44,94.46c0,.35.07.6.2.76s.36.23.66.23c.34,0,.61-.13.8-.39s.3-.62.3-1.06v-2.23h.7v4.18h-.67v-.64c-.05.08-.1.15-.16.21-.3.36-.67.54-1.12.54-.47,0-.83-.12-1.07-.36s-.36-.59-.36-1.07v-2.87h.7v2.7Z"/>
      <path class="cls-7" d="m117.56,92.98c-.02-.23-.12-.41-.28-.54s-.39-.19-.68-.19-.51.05-.67.15-.23.25-.23.45c0,.15.05.26.16.34s.32.15.64.23l.73.17c.41.1.7.24.87.41.17.17.26.41.26.72,0,.41-.15.74-.45.98s-.7.36-1.21.36c-.59,0-1.03-.12-1.32-.35s-.45-.6-.48-1.1h.68c.03.3.14.51.31.64.18.13.44.2.81.2.32,0,.55-.06.72-.18.16-.12.24-.29.24-.52,0-.15-.05-.26-.16-.33-.11-.08-.32-.15-.64-.23l-.73-.17c-.39-.09-.67-.23-.84-.39-.17-.17-.25-.4-.25-.7,0-.39.14-.71.42-.94.28-.23.66-.35,1.14-.35s.87.12,1.16.36c.29.24.44.56.46.98h-.66Z"/>
      <path class="cls-7" d="m119.16,91.77h.67v.62l.16-.21c.3-.36.69-.54,1.14-.54s.82.12,1.07.38.38.61.38,1.07v2.86h-.7v-2.62c0-.37-.07-.63-.21-.79s-.37-.24-.69-.24c-.34,0-.61.13-.8.38s-.3.6-.3,1.04v2.24h-.7v-4.18Z"/>
      <path class="cls-7" d="m125.32,96.06c-.59,0-1.06-.19-1.39-.56s-.51-.89-.51-1.55c0-.7.18-1.26.54-1.68s.84-.62,1.44-.62c.55,0,.99.2,1.32.61s.5.94.5,1.6v.25h-3.06c.03.42.12.73.29.95.2.27.51.4.94.4.27,0,.5-.08.7-.23.2-.15.32-.34.37-.58h.7c-.1.46-.31.81-.62,1.05s-.71.36-1.21.36Zm1.17-2.52c-.02-.39-.12-.69-.29-.91-.19-.24-.47-.36-.84-.36s-.67.14-.89.41c-.17.22-.28.5-.32.85h2.33Z"/>
      <path class="cls-7" d="m130.46,92.98c-.02-.23-.12-.41-.28-.54s-.39-.19-.68-.19-.51.05-.67.15-.23.25-.23.45c0,.15.05.26.16.34s.32.15.64.23l.73.17c.41.1.7.24.87.41.17.17.26.41.26.72,0,.41-.15.74-.45.98s-.7.36-1.21.36c-.59,0-1.03-.12-1.32-.35s-.45-.6-.48-1.1h.68c.03.3.14.51.31.64.18.13.44.2.81.2.32,0,.55-.06.72-.18.16-.12.24-.29.24-.52,0-.15-.05-.26-.16-.33-.11-.08-.32-.15-.64-.23l-.73-.17c-.39-.09-.67-.23-.84-.39-.17-.17-.25-.4-.25-.7,0-.39.14-.71.42-.94.28-.23.66-.35,1.14-.35s.87.12,1.16.36c.29.24.44.56.46.98h-.66Z"/>
      <path class="cls-7" d="m134.46,92.98c-.02-.23-.12-.41-.28-.54s-.39-.19-.68-.19-.51.05-.67.15-.23.25-.23.45c0,.15.05.26.16.34s.32.15.64.23l.73.17c.41.1.7.24.87.41.17.17.26.41.26.72,0,.41-.15.74-.45.98s-.7.36-1.21.36c-.59,0-1.03-.12-1.32-.35s-.45-.6-.48-1.1h.68c.03.3.14.51.31.64.18.13.44.2.81.2.32,0,.55-.06.72-.18.16-.12.24-.29.24-.52,0-.15-.05-.26-.16-.33-.11-.08-.32-.15-.64-.23l-.73-.17c-.39-.09-.67-.23-.84-.39-.17-.17-.25-.4-.25-.7,0-.39.14-.71.42-.94.28-.23.66-.35,1.14-.35s.87.12,1.16.36c.29.24.44.56.46.98h-.66Z"/>
    </g>
    <g>
      <path class="cls-2" d="m286.99,84.84c-.1.71-.37,1.26-.81,1.67s-1.01.6-1.69.6c-.79,0-1.42-.27-1.89-.82s-.71-1.28-.71-2.21.24-1.66.73-2.21,1.14-.82,1.97-.82c.65,0,1.18.17,1.6.5s.67.79.75,1.38h-.75c-.07-.38-.25-.67-.53-.88s-.64-.31-1.08-.31c-.58,0-1.03.21-1.38.63s-.51.99-.51,1.71c0,.76.16,1.34.47,1.74s.78.6,1.38.6c.45,0,.82-.14,1.11-.41s.49-.66.59-1.17h.75Z"/>
      <path class="cls-2" d="m288.13,86.45c-.36-.41-.54-.94-.54-1.6s.18-1.2.54-1.6.83-.61,1.4-.61,1.05.2,1.41.61.54.94.54,1.6-.18,1.19-.54,1.6-.83.61-1.41.61-1.05-.2-1.4-.61Zm2.29-.43c.22-.29.33-.68.33-1.17s-.11-.88-.33-1.17-.51-.44-.88-.44-.66.15-.88.44-.33.68-.33,1.17.11.88.33,1.17.51.43.88.43.66-.14.88-.43Z"/>
      <path class="cls-2" d="m292.28,82.77h.67v.62l.16-.21c.3-.36.69-.54,1.14-.54s.82.12,1.07.38.38.61.38,1.07v2.86h-.7v-2.62c0-.37-.07-.63-.21-.79s-.37-.24-.69-.24c-.34,0-.61.13-.8.38s-.3.6-.3,1.04v2.24h-.7v-4.18Z"/>
      <path class="cls-2" d="m297.61,83.35v3.6h-.7v-3.6h-.58v-.58h.58v-.71c0-.31.09-.54.27-.7s.46-.23.82-.23h.31v.64h-.28c-.14-.01-.24.03-.31.12s-.11.21-.11.37v.51h.7v.58h-.7Z"/>
      <path class="cls-2" d="m299.68,85.46c0,.35.07.6.2.76s.36.23.66.23c.34,0,.61-.13.8-.39s.3-.62.3-1.06v-2.23h.7v4.18h-.67v-.64c-.05.08-.1.15-.16.21-.3.36-.67.54-1.12.54-.47,0-.83-.12-1.07-.36s-.36-.59-.36-1.07v-2.87h.7v2.7Z"/>
      <path class="cls-2" d="m305.8,83.98c-.02-.23-.12-.41-.28-.54s-.39-.19-.68-.19-.51.05-.67.15-.23.25-.23.45c0,.15.05.26.16.34.11.08.32.15.64.23l.73.17c.41.1.7.24.87.41.17.17.26.41.26.72,0,.41-.15.74-.45.98s-.7.36-1.21.36c-.59,0-1.03-.12-1.32-.35s-.45-.6-.48-1.1h.68c.03.3.14.51.31.64s.44.2.81.2c.32,0,.55-.06.72-.18.16-.12.24-.29.24-.52,0-.15-.05-.26-.16-.33s-.32-.15-.64-.23l-.73-.17c-.39-.09-.67-.23-.84-.39-.17-.17-.25-.4-.25-.7,0-.39.14-.71.42-.94.28-.23.66-.35,1.14-.35s.87.12,1.16.36c.29.24.44.56.46.98h-.66Z"/>
      <path class="cls-2" d="m307.42,81.21h.72v.8h-.72v-.8Zm0,1.56h.7v4.18h-.7v-4.18Z"/>
      <path class="cls-2" d="m309.18,82.77h.67v.62l.16-.21c.3-.36.69-.54,1.14-.54s.82.12,1.07.38.38.61.38,1.07v2.86h-.7v-2.62c0-.37-.07-.63-.21-.79s-.37-.24-.69-.24c-.34,0-.61.13-.8.38s-.3.6-.3,1.04v2.24h-.7v-4.18Z"/>
      <path class="cls-2" d="m315.16,88.13c.4,0,.71-.13.92-.38s.32-.62.32-1.11v-.14h0c-.29.37-.67.56-1.13.56-.56,0-1-.21-1.34-.63s-.5-.98-.5-1.69c0-.63.16-1.13.49-1.52s.75-.58,1.28-.58.9.22,1.2.65l.05.07v-.6h.66v3.87c0,.71-.16,1.23-.48,1.57s-.8.51-1.45.51c-.47,0-.85-.11-1.13-.33s-.45-.54-.5-.95h.72c.04.22.14.4.3.52s.36.18.6.18Zm.14-4.85c-.39,0-.68.12-.86.38s-.27.65-.27,1.19c0,.51.1.91.29,1.19s.48.42.84.42c.34,0,.62-.13.82-.38s.31-.59.31-1.01c0-.59-.09-1.03-.28-1.33s-.47-.44-.85-.44Z"/>
      <path class="cls-2" d="m281.13,90.2h2.67c.61,0,1.07.13,1.39.4s.48.65.48,1.16-.17.9-.5,1.18c-.08.07-.17.13-.27.19l.13.06c.35.2.53.54.54,1.01l.03,1.05c0,.17.03.3.07.37s.11.14.23.2v.12h-.96s-.04-.17-.06-.37c-.02-.2-.04-.42-.05-.66l-.02-.45c-.01-.36-.1-.61-.26-.76s-.43-.23-.8-.23h-1.84v2.48h-.78v-5.74Zm.78,2.59h1.92c.36,0,.62-.08.79-.24s.25-.41.25-.75-.09-.57-.26-.73-.45-.23-.83-.23h-1.86v1.94Z"/>
      <path class="cls-2" d="m288.42,96.06c-.59,0-1.06-.19-1.39-.56s-.51-.89-.51-1.55c0-.7.18-1.26.54-1.68s.84-.62,1.44-.62c.55,0,.99.2,1.32.61s.5.94.5,1.6v.25h-3.06c.03.42.12.73.29.95.2.27.51.4.94.4.27,0,.5-.08.7-.23s.32-.34.37-.58h.7c-.1.46-.31.81-.62,1.05s-.71.36-1.21.36Zm1.17-2.52c-.02-.39-.12-.69-.29-.91-.19-.24-.47-.36-.84-.36s-.67.14-.89.41c-.17.22-.28.5-.32.85h2.33Z"/>
      <path class="cls-2" d="m292.27,96.06c-.41,0-.73-.11-.97-.33s-.36-.51-.36-.89.11-.67.34-.89.55-.36.99-.41l.96-.12c.08,0,.15-.02.22-.04.09-.02.16-.07.21-.14s.07-.16.07-.27v-.04c0-.22-.08-.4-.25-.53s-.41-.19-.71-.19-.51.07-.68.2-.26.33-.29.6h-.65c.03-.46.2-.8.48-1.03s.7-.35,1.24-.35c.51,0,.89.11,1.16.33s.4.54.4.96v2.3c0,.07.02.13.06.17s.1.06.17.06c.02,0,.05,0,.09,0s.08-.01.13-.02v.51c-.07.03-.14.05-.21.06s-.14.02-.19.02c-.27,0-.46-.07-.58-.22-.08-.1-.13-.23-.17-.41-.05.06-.11.13-.18.19-.35.31-.78.47-1.29.47Zm1.46-1.77v-.45c-.13.06-.27.11-.43.13l-.64.09c-.34.05-.59.13-.74.24s-.23.26-.23.45c0,.23.06.41.19.54s.31.19.54.19c.37,0,.68-.1.94-.3.17-.14.29-.3.35-.48.01-.03.02-.09.02-.16,0-.08.01-.16.01-.25Z"/>
      <path class="cls-2" d="m298.01,92.98c-.02-.23-.12-.41-.28-.54s-.39-.19-.68-.19-.51.05-.67.15-.23.25-.23.45c0,.15.05.26.16.34.11.08.32.15.64.23l.73.17c.41.1.7.24.87.41.17.17.26.41.26.72,0,.41-.15.74-.45.98s-.7.36-1.21.36c-.59,0-1.03-.12-1.32-.35s-.45-.6-.48-1.1h.68c.03.3.14.51.31.64s.44.2.81.2c.32,0,.55-.06.72-.18.16-.12.24-.29.24-.52,0-.15-.05-.26-.16-.33s-.32-.15-.64-.23l-.73-.17c-.39-.09-.67-.23-.84-.39-.17-.17-.25-.4-.25-.7,0-.39.14-.71.42-.94.28-.23.66-.35,1.14-.35s.87.12,1.16.36c.29.24.44.56.46.98h-.66Z"/>
      <path class="cls-2" d="m299.92,95.45c-.36-.41-.54-.94-.54-1.6s.18-1.2.54-1.6.83-.61,1.4-.61,1.05.2,1.41.61.54.94.54,1.6-.18,1.19-.54,1.6-.83.61-1.41.61-1.05-.2-1.4-.61Zm2.29-.43c.22-.29.33-.68.33-1.17s-.11-.88-.33-1.17-.51-.44-.88-.44-.66.15-.88.44-.33.68-.33,1.17.11.88.33,1.17.51.43.88.43.66-.14.88-.43Z"/>
      <path class="cls-2" d="m304.07,91.77h.67v.62l.16-.21c.3-.36.69-.54,1.14-.54s.82.12,1.07.38.38.61.38,1.07v2.86h-.7v-2.62c0-.37-.07-.63-.21-.79s-.37-.24-.69-.24c-.34,0-.61.13-.8.38s-.3.6-.3,1.04v2.24h-.7v-4.18Z"/>
      <path class="cls-2" d="m308.53,90.2h.72v.8h-.72v-.8Zm0,1.56h.7v4.18h-.7v-4.18Z"/>
      <path class="cls-2" d="m310.29,91.77h.67v.62l.16-.21c.3-.36.69-.54,1.14-.54s.82.12,1.07.38.38.61.38,1.07v2.86h-.7v-2.62c0-.37-.07-.63-.21-.79s-.37-.24-.69-.24c-.34,0-.61.13-.8.38s-.3.6-.3,1.04v2.24h-.7v-4.18Z"/>
      <path class="cls-2" d="m316.27,97.13c.4,0,.71-.13.92-.38s.32-.62.32-1.11v-.14h0c-.29.37-.67.56-1.13.56-.56,0-1-.21-1.34-.63s-.5-.98-.5-1.69c0-.63.16-1.13.49-1.52s.75-.58,1.28-.58.9.22,1.2.65l.05.07v-.6h.66v3.87c0,.71-.16,1.23-.48,1.57s-.8.51-1.45.51c-.47,0-.85-.11-1.13-.33s-.45-.54-.5-.95h.72c.04.22.14.4.3.52s.36.18.6.18Zm.14-4.85c-.39,0-.68.12-.86.38s-.27.65-.27,1.19c0,.51.1.91.29,1.19s.48.42.84.42c.34,0,.62-.13.82-.38s.31-.59.31-1.01c0-.59-.09-1.03-.28-1.33s-.47-.44-.85-.44Z"/>
    </g>
    <g>
      <path class="cls-10" d="m238.89,86.95h-.75v-5.74h1.12l1.64,4.89,1.63-4.89h1.12v5.74h-.75v-4.86h0l-1.62,4.86h-.75l-1.62-4.84h0v4.84Z"/>
      <path class="cls-10" d="m244.75,81.21h.72v.8h-.72v-.8Zm0,1.56h.7v4.18h-.7v-4.18Z"/>
      <path class="cls-10" d="m248.9,83.98c-.02-.23-.12-.41-.28-.54s-.39-.19-.68-.19-.51.05-.67.15-.23.25-.23.45c0,.15.05.26.16.34.11.08.32.15.64.23l.73.17c.41.1.7.24.87.41.17.17.26.41.26.72,0,.41-.15.74-.45.98-.3.24-.7.36-1.21.36-.59,0-1.03-.12-1.32-.35s-.45-.6-.48-1.1h.67c.03.3.14.51.31.64s.45.2.81.2c.32,0,.55-.06.72-.18.16-.12.24-.29.24-.52,0-.15-.05-.26-.16-.33-.11-.08-.32-.15-.64-.23l-.73-.17c-.39-.09-.67-.23-.84-.39-.17-.17-.25-.4-.25-.7,0-.39.14-.71.42-.94.28-.23.66-.35,1.14-.35s.87.12,1.16.36c.29.24.44.56.46.98h-.66Z"/>
      <path class="cls-10" d="m252.9,83.98c-.02-.23-.12-.41-.28-.54s-.39-.19-.68-.19-.51.05-.67.15-.23.25-.23.45c0,.15.05.26.16.34.11.08.32.15.64.23l.73.17c.41.1.7.24.87.41.17.17.26.41.26.72,0,.41-.15.74-.45.98-.3.24-.7.36-1.21.36-.59,0-1.03-.12-1.32-.35s-.45-.6-.48-1.1h.67c.03.3.14.51.31.64s.45.2.81.2c.32,0,.55-.06.72-.18.16-.12.24-.29.24-.52,0-.15-.05-.26-.16-.33-.11-.08-.32-.15-.64-.23l-.73-.17c-.39-.09-.67-.23-.84-.39-.17-.17-.25-.4-.25-.7,0-.39.14-.71.42-.94.28-.23.66-.35,1.14-.35s.87.12,1.16.36c.29.24.44.56.46.98h-.66Z"/>
      <path class="cls-10" d="m254.52,81.21h.72v.8h-.72v-.8Zm0,1.56h.7v4.18h-.7v-4.18Z"/>
      <path class="cls-10" d="m256.28,82.77h.67v.62l.16-.21c.3-.36.69-.54,1.14-.54s.82.12,1.07.38.38.61.38,1.07v2.86h-.7v-2.62c0-.37-.07-.63-.21-.79-.14-.16-.37-.24-.69-.24-.34,0-.61.13-.8.38-.2.26-.3.6-.3,1.04v2.24h-.7v-4.18Z"/>
      <path class="cls-10" d="m262.26,88.13c.4,0,.71-.13.92-.38.21-.25.32-.62.32-1.11v-.14h0c-.29.37-.67.56-1.13.56-.56,0-1-.21-1.33-.63-.33-.42-.5-.98-.5-1.69,0-.63.16-1.13.49-1.52.33-.39.75-.58,1.28-.58s.9.22,1.19.65l.05.07v-.6h.66v3.87c0,.71-.16,1.23-.48,1.57-.31.34-.8.51-1.45.51-.47,0-.85-.11-1.13-.33-.28-.22-.45-.54-.5-.95h.72c.04.22.14.4.3.52.16.12.36.18.6.18Zm.14-4.85c-.39,0-.68.12-.86.38-.18.25-.27.65-.27,1.19,0,.51.1.91.29,1.19.2.28.48.42.84.42.34,0,.62-.13.82-.38.21-.26.31-.59.31-1.01,0-.59-.09-1.03-.28-1.33-.19-.3-.47-.44-.85-.44Z"/>
      <path class="cls-10" d="m232.91,90.2h2.67c.61,0,1.07.13,1.39.4s.48.65.48,1.16-.17.9-.5,1.18c-.08.07-.17.13-.27.19l.13.06c.35.2.53.54.54,1.01l.03,1.05c0,.17.03.3.07.37s.11.14.23.2v.12h-.96s-.04-.17-.06-.37c-.02-.2-.04-.42-.05-.66l-.02-.45c-.01-.36-.1-.61-.26-.76s-.43-.23-.8-.23h-1.84v2.48h-.78v-5.74Zm.78,2.59h1.92c.36,0,.62-.08.79-.24s.25-.41.25-.75-.09-.57-.26-.73-.45-.23-.83-.23h-1.86v1.94Z"/>
      <path class="cls-10" d="m240.2,96.06c-.59,0-1.06-.19-1.39-.56s-.51-.89-.51-1.55c0-.7.18-1.26.54-1.68s.84-.62,1.44-.62c.55,0,.99.2,1.32.61s.5.94.5,1.6v.25h-3.06c.03.42.12.73.29.95.2.27.51.4.94.4.27,0,.5-.08.7-.23s.32-.34.37-.58h.7c-.1.46-.31.81-.62,1.05s-.71.36-1.21.36Zm1.17-2.52c-.02-.39-.12-.69-.29-.91-.19-.24-.47-.36-.84-.36s-.67.14-.89.41c-.17.22-.28.5-.32.85h2.33Z"/>
      <path class="cls-10" d="m242.97,90.2h.7v5.74h-.7v-5.74Z"/>
      <path class="cls-10" d="m246.43,96.06c-.59,0-1.06-.19-1.39-.56s-.51-.89-.51-1.55c0-.7.18-1.26.54-1.68s.84-.62,1.44-.62c.55,0,.99.2,1.32.61s.5.94.5,1.6v.25h-3.06c.03.42.12.73.29.95.2.27.51.4.94.4.27,0,.5-.08.7-.23s.32-.34.37-.58h.7c-.1.46-.31.81-.62,1.05s-.71.36-1.21.36Zm1.17-2.52c-.02-.39-.12-.69-.29-.91-.19-.24-.47-.36-.84-.36s-.67.14-.89.41c-.17.22-.28.5-.32.85h2.33Z"/>
      <path class="cls-10" d="m248.72,91.77h.82l1.12,3.42h0l1.16-3.42h.78l-1.56,4.18h-.75l-1.56-4.18Z"/>
      <path class="cls-10" d="m254.28,96.06c-.41,0-.73-.11-.97-.33s-.36-.51-.36-.89.11-.67.34-.89.55-.36.99-.41l.96-.12c.08,0,.15-.02.22-.04.09-.02.16-.07.21-.14s.07-.16.07-.27v-.04c0-.22-.08-.4-.25-.53s-.41-.19-.71-.19-.51.07-.68.2-.26.33-.29.6h-.65c.03-.46.2-.8.48-1.03s.7-.35,1.24-.35c.51,0,.89.11,1.16.33s.4.54.4.96v2.3c0,.07.02.13.06.17s.1.06.17.06c.02,0,.05,0,.09,0s.08-.01.13-.02v.51c-.07.03-.14.05-.21.06s-.14.02-.19.02c-.27,0-.46-.07-.58-.22-.08-.1-.13-.23-.17-.41-.05.06-.11.13-.18.19-.35.31-.78.47-1.29.47Zm1.46-1.77v-.45c-.13.06-.27.11-.43.13l-.64.09c-.34.05-.59.13-.74.24s-.23.26-.23.45c0,.23.06.41.19.54s.31.19.54.19c.37,0,.68-.1.94-.3.17-.14.29-.3.35-.48.01-.03.02-.09.02-.16,0-.08.01-.16.01-.25Z"/>
      <path class="cls-10" d="m257.63,91.77h.67v.62l.16-.21c.3-.36.69-.54,1.14-.54s.82.12,1.07.38.38.61.38,1.07v2.86h-.7v-2.62c0-.37-.07-.63-.21-.79s-.37-.24-.69-.24c-.34,0-.61.13-.8.38s-.3.6-.3,1.04v2.24h-.7v-4.18Z"/>
      <path class="cls-10" d="m265.37,94.44c-.07.53-.26.93-.56,1.2s-.7.41-1.2.41c-.55,0-1-.2-1.33-.6s-.5-.94-.5-1.61.17-1.21.51-1.61.8-.6,1.38-.6c.5,0,.9.14,1.2.41s.46.65.48,1.13h-.68c-.03-.3-.13-.53-.31-.7s-.42-.25-.72-.25c-.35,0-.63.14-.83.43s-.3.68-.3,1.18c0,.53.09.93.28,1.2s.47.4.84.4c.27,0,.5-.09.69-.26s.31-.43.37-.75h.68Z"/>
      <path class="cls-10" d="m267.78,96.06c-.59,0-1.06-.19-1.39-.56s-.51-.89-.51-1.55c0-.7.18-1.26.54-1.68s.84-.62,1.44-.62c.55,0,.99.2,1.32.61s.5.94.5,1.6v.25h-3.06c.03.42.12.73.29.95.2.27.51.4.94.4.27,0,.5-.08.7-.23s.32-.34.37-.58h.7c-.1.46-.31.81-.62,1.05s-.71.36-1.21.36Zm1.17-2.52c-.02-.39-.12-.69-.29-.91-.19-.24-.47-.36-.84-.36s-.67.14-.89.41c-.17.22-.28.5-.32.85h2.33Z"/>
    </g>
    <g>
      <path class="cls-10" d="m197.99,84.84c0,.71-.2,1.26-.6,1.66-.4.4-.95.6-1.66.6s-1.3-.19-1.68-.58-.58-.95-.58-1.69v-3.64h.78v3.58c0,.53.13.94.38,1.22s.62.42,1.1.42.85-.14,1.1-.42.38-.68.38-1.22v-3.58h.78v3.64Z"/>
      <path class="cls-10" d="m199.13,82.77h.67v.62l.16-.21c.3-.36.69-.54,1.14-.54s.82.12,1.07.38c.25.25.37.61.37,1.07v2.86h-.7v-2.62c0-.37-.07-.63-.21-.79s-.37-.24-.69-.24c-.34,0-.61.13-.8.38-.2.26-.3.6-.3,1.04v2.24h-.7v-4.18Z"/>
      <path class="cls-10" d="m206.87,85.45c-.07.53-.26.93-.56,1.2s-.7.41-1.19.41c-.55,0-1-.2-1.33-.6s-.5-.94-.5-1.61.17-1.21.51-1.61.8-.6,1.38-.6c.5,0,.9.14,1.2.41s.46.65.48,1.13h-.68c-.03-.3-.13-.53-.31-.7s-.42-.25-.72-.25c-.35,0-.63.14-.83.43s-.3.68-.3,1.18c0,.53.09.93.28,1.2s.47.4.84.4c.27,0,.5-.09.69-.26s.31-.43.37-.75h.68Z"/>
      <path class="cls-10" d="m207.59,81.21h.7v5.74h-.7v-5.74Z"/>
      <path class="cls-10" d="m211.06,87.06c-.59,0-1.06-.19-1.39-.56s-.51-.89-.51-1.55c0-.7.18-1.26.54-1.68s.84-.62,1.44-.62c.55,0,.99.2,1.32.61s.5.94.5,1.6v.25h-3.06c.03.42.12.73.29.95.2.27.51.4.94.4.27,0,.5-.08.7-.23.2-.15.32-.34.37-.58h.7c-.1.46-.31.81-.62,1.05s-.71.36-1.21.36Zm1.17-2.52c-.02-.39-.12-.69-.29-.91-.19-.24-.47-.36-.84-.36s-.67.14-.89.41c-.17.22-.28.5-.32.85h2.33Z"/>
      <path class="cls-10" d="m214.9,87.06c-.41,0-.73-.11-.97-.33-.24-.22-.36-.51-.36-.89s.11-.67.34-.89c.22-.22.55-.36.99-.41l.96-.12c.08,0,.15-.02.22-.04.09-.02.16-.07.21-.14.05-.07.07-.16.07-.27v-.04c0-.22-.08-.4-.25-.53-.17-.13-.41-.19-.71-.19s-.51.07-.68.2c-.16.13-.26.33-.29.6h-.65c.03-.46.2-.8.48-1.03.29-.23.7-.35,1.24-.35.51,0,.89.11,1.16.33s.4.54.4.96v2.3c0,.07.02.13.06.17s.1.06.17.06c.02,0,.05,0,.09,0s.08-.01.13-.02v.51c-.07.03-.14.05-.21.06s-.14.02-.19.02c-.27,0-.46-.07-.58-.22-.08-.1-.13-.23-.17-.41-.05.06-.11.13-.18.19-.35.31-.78.47-1.29.47Zm1.46-1.77v-.45c-.13.06-.27.11-.43.13l-.64.09c-.34.05-.59.13-.74.24s-.23.26-.23.45c0,.23.06.41.19.54.13.13.31.19.54.19.37,0,.68-.1.94-.3.17-.14.29-.3.35-.48,0-.03.02-.09.02-.16,0-.08.01-.16.01-.25Z"/>
      <path class="cls-10" d="m218.35,82.77h.67v.71c.06-.11.12-.21.19-.3.27-.36.59-.54.98-.54.06,0,.13.01.2.04v.72h-.14c-.38,0-.67.11-.88.34s-.31.55-.31.97v2.24h-.7v-4.18Z"/>
      <path class="cls-10" d="m192.61,95.95h-.75v-5.74h1.12l1.64,4.89h0l1.63-4.89h1.12v5.74h-.75v-4.86h0l-1.62,4.86h-.75l-1.62-4.84h0v4.84Z"/>
      <path class="cls-10" d="m200.16,96.06c-.59,0-1.06-.19-1.39-.56s-.51-.89-.51-1.55c0-.7.18-1.26.54-1.68s.84-.62,1.44-.62c.55,0,.99.2,1.32.61s.5.94.5,1.6v.25h-3.06c.03.42.12.73.29.95.2.27.51.4.94.4.27,0,.5-.08.7-.23.2-.15.32-.34.37-.58h.7c-.1.46-.31.81-.62,1.05s-.71.36-1.21.36Zm1.17-2.52c-.02-.39-.12-.69-.29-.91-.19-.24-.47-.36-.84-.36s-.67.14-.89.41c-.17.22-.28.5-.32.85h2.33Z"/>
      <path class="cls-10" d="m204,96.06c-.41,0-.73-.11-.97-.33s-.36-.51-.36-.89.11-.67.34-.89.55-.36.99-.41l.96-.12c.08,0,.15-.02.22-.04.09-.02.16-.07.21-.14s.07-.16.07-.27v-.04c0-.22-.08-.4-.25-.53s-.4-.19-.71-.19-.52.07-.68.2-.26.33-.29.6h-.65c.03-.46.2-.8.48-1.03s.7-.35,1.24-.35c.51,0,.89.11,1.16.33s.4.54.4.96v2.3c0,.07.02.13.06.17s.1.06.17.06c.02,0,.05,0,.09,0s.08-.01.13-.02v.51c-.07.03-.14.05-.21.06s-.14.02-.19.02c-.27,0-.46-.07-.58-.22-.08-.1-.13-.23-.17-.41-.05.06-.11.13-.18.19-.35.31-.78.47-1.29.47Zm1.46-1.77v-.45c-.13.06-.27.11-.43.13l-.64.09c-.34.05-.59.13-.74.24s-.23.26-.23.45c0,.23.06.41.19.54s.31.19.54.19c.37,0,.68-.1.94-.3.17-.14.29-.3.35-.48.01-.03.02-.09.02-.16,0-.08.01-.16.01-.25Z"/>
      <path class="cls-10" d="m207.35,91.77h.67v.62l.16-.21c.3-.36.69-.54,1.14-.54s.82.12,1.07.38.38.61.38,1.07v2.86h-.7v-2.62c0-.37-.07-.63-.21-.79s-.37-.24-.69-.24c-.34,0-.61.13-.8.38s-.3.6-.3,1.04v2.24h-.7v-4.18Z"/>
      <path class="cls-10" d="m211.82,90.2h.72v.8h-.72v-.8Zm0,1.56h.7v4.18h-.7v-4.18Z"/>
      <path class="cls-10" d="m213.58,91.77h.67v.62l.16-.21c.3-.36.69-.54,1.14-.54s.82.12,1.07.38.38.61.38,1.07v2.86h-.7v-2.62c0-.37-.07-.63-.21-.79s-.37-.24-.69-.24c-.34,0-.61.13-.8.38s-.3.6-.3,1.04v2.24h-.7v-4.18Z"/>
      <path class="cls-10" d="m219.56,97.13c.4,0,.71-.13.92-.38s.32-.62.32-1.11v-.14h0c-.29.37-.67.56-1.13.56-.56,0-1-.21-1.34-.63s-.5-.98-.5-1.69c0-.63.16-1.13.49-1.52s.75-.58,1.28-.58.9.22,1.2.65l.05.07v-.6h.66v3.87c0,.71-.16,1.23-.48,1.57s-.8.51-1.45.51c-.47,0-.85-.11-1.13-.33s-.45-.54-.5-.95h.72c.04.22.14.4.3.52s.36.18.6.18Zm.14-4.85c-.39,0-.68.12-.86.38s-.27.65-.27,1.19c0,.51.1.91.29,1.19s.48.42.84.42c.34,0,.62-.13.82-.38s.31-.59.31-1.01c0-.59-.09-1.03-.28-1.33s-.47-.44-.85-.44Z"/>
    </g>
    <g>
      <path d="m331.5,81.21h2.36c.73,0,1.31.26,1.74.78s.65,1.22.65,2.1-.22,1.57-.66,2.09-1.04.78-1.79.78h-2.3v-5.74Zm.78,5.08h1.42c.56,0,.99-.19,1.29-.57s.46-.93.46-1.63-.15-1.25-.44-1.63-.71-.58-1.24-.58h-1.49v4.41Z"/>
      <path d="m338.85,87.06c-.59,0-1.06-.19-1.39-.56s-.51-.89-.51-1.55c0-.7.18-1.26.54-1.68s.84-.62,1.44-.62c.55,0,.99.2,1.32.61s.5.94.5,1.6v.25h-3.06c.03.42.12.73.29.95.2.27.51.4.94.4.27,0,.5-.08.7-.23s.32-.34.37-.58h.7c-.1.46-.31.81-.62,1.05s-.71.36-1.21.36Zm1.17-2.52c-.02-.39-.12-.69-.29-.91-.19-.24-.47-.36-.84-.36s-.67.14-.89.41c-.17.22-.28.5-.32.85h2.33Z"/>
      <path d="m343.14,86.94c-.24.04-.41.05-.52.05-.31,0-.52-.07-.65-.2s-.19-.37-.19-.7v-2.75h-.58v-.57h.58v-1.17h.7v1.17h.66v.57h-.66v2.75c0,.09.04.17.11.22s.17.08.3.08h.25v.54Z"/>
      <path d="m343.92,82.77h.67v.71c.06-.11.12-.21.19-.3.27-.36.59-.54.98-.54.07,0,.13.01.2.04v.72h-.14c-.38,0-.67.11-.88.34s-.31.55-.31.97v2.24h-.7v-4.18Z"/>
      <path d="m346.5,81.21h.72v.8h-.72v-.8Zm0,1.56h.7v4.18h-.7v-4.18Z"/>
      <path d="m348.27,82.77h.67v.62l.14-.19c.32-.37.69-.56,1.13-.56.38,0,.67.11.89.33.1.1.18.21.23.34l.11-.14c.3-.35.66-.53,1.08-.53s.78.12,1.01.36.36.58.36,1.01v2.93h-.7v-2.7c0-.32-.07-.56-.2-.72s-.32-.25-.57-.25c-.3,0-.55.12-.73.36s-.27.56-.27.96v2.35h-.7v-2.86c0-.26-.06-.46-.18-.6s-.29-.21-.52-.21c-.31,0-.57.13-.77.4s-.3.61-.3,1.03v2.24h-.7v-4.18Z"/>
      <path d="m356.63,87.06c-.59,0-1.06-.19-1.39-.56s-.51-.89-.51-1.55c0-.7.18-1.26.54-1.68s.84-.62,1.44-.62c.55,0,.99.2,1.32.61s.5.94.5,1.6v.25h-3.06c.03.42.12.73.29.95.2.27.51.4.94.4.27,0,.5-.08.7-.23s.32-.34.37-.58h.7c-.1.46-.31.81-.62,1.05s-.71.36-1.21.36Zm1.17-2.52c-.02-.39-.12-.69-.29-.91-.19-.24-.47-.36-.84-.36s-.67.14-.89.41c-.17.22-.28.5-.32.85h2.33Z"/>
      <path d="m359.38,82.77h.67v.62l.16-.21c.3-.36.69-.54,1.14-.54s.82.12,1.07.38.38.61.38,1.07v2.86h-.7v-2.62c0-.37-.07-.63-.21-.79s-.37-.24-.69-.24c-.34,0-.61.13-.8.38s-.3.6-.3,1.04v2.24h-.7v-4.18Z"/>
      <path d="m365.36,86.94c-.24.04-.41.05-.52.05-.31,0-.52-.07-.65-.2s-.19-.37-.19-.7v-2.75h-.58v-.57h.58v-1.17h.7v1.17h.66v.57h-.66v2.75c0,.09.04.17.11.22s.17.08.3.08h.25v.54Z"/>
      <path d="m367.15,87.06c-.41,0-.73-.11-.97-.33s-.36-.51-.36-.89.11-.67.34-.89.55-.36.99-.41l.96-.12c.08,0,.15-.02.22-.04.09-.02.16-.07.21-.14s.07-.16.07-.27v-.04c0-.22-.08-.4-.25-.53s-.41-.19-.71-.19-.51.07-.68.2-.26.33-.29.6h-.65c.03-.46.2-.8.48-1.03s.7-.35,1.24-.35c.51,0,.89.11,1.16.33s.4.54.4.96v2.3c0,.07.02.13.06.17s.1.06.17.06c.02,0,.05,0,.09,0s.08-.01.13-.02v.51c-.07.03-.14.05-.21.06s-.14.02-.19.02c-.27,0-.46-.07-.58-.22-.08-.1-.13-.23-.17-.41-.05.06-.11.13-.18.19-.35.31-.78.47-1.29.47Zm1.46-1.77v-.45c-.13.06-.27.11-.43.13l-.64.09c-.34.05-.59.13-.74.24s-.23.26-.23.45c0,.23.06.41.19.54s.31.19.54.19c.37,0,.68-.1.94-.3.17-.14.29-.3.35-.48.01-.03.02-.09.02-.16,0-.08.01-.16.01-.25Z"/>
      <path d="m370.52,81.21h.7v5.74h-.7v-5.74Z"/>
      <path d="m330.16,95.27c-.52-.56-.77-1.29-.77-2.19s.26-1.64.77-2.2,1.19-.84,2.02-.84,1.51.28,2.03.84.77,1.29.77,2.2-.26,1.63-.77,2.19-1.19.83-2.03.83-1.51-.28-2.02-.83Zm3.47-.5c.37-.43.55-.99.55-1.69s-.18-1.27-.55-1.7-.85-.65-1.45-.65-1.08.22-1.45.65-.55,1-.55,1.7.18,1.26.55,1.69.85.64,1.45.64,1.08-.21,1.45-.64Z"/>
      <path d="m335.91,91.77h.67v.71c.06-.11.12-.21.19-.3.27-.36.59-.54.98-.54.07,0,.13.01.2.04v.72h-.14c-.38,0-.67.11-.88.34s-.31.55-.31.97v2.24h-.7v-4.18Z"/>
      <path d="m340.01,95.94c-.24.04-.41.05-.52.05-.31,0-.52-.07-.65-.2s-.19-.37-.19-.7v-2.75h-.58v-.57h.58v-1.17h.7v1.17h.66v.57h-.66v2.75c0,.09.04.17.11.22s.17.08.3.08h.25v.54Z"/>
      <path d="m340.7,90.2h.7v2.13l.12-.16c.3-.36.69-.54,1.14-.54s.82.12,1.07.38.38.61.38,1.07v2.86h-.7v-2.69c0-.35-.07-.6-.2-.75s-.35-.23-.65-.23c-.35,0-.64.13-.84.38s-.31.6-.31,1.04v2.24h-.7v-5.74Z"/>
      <path d="m345.45,95.45c-.36-.41-.54-.94-.54-1.6s.18-1.2.54-1.6.83-.61,1.4-.61,1.05.2,1.41.61.54.94.54,1.6-.18,1.19-.54,1.6-.83.61-1.41.61-1.05-.2-1.4-.61Zm2.29-.43c.22-.29.33-.68.33-1.17s-.11-.88-.33-1.17-.51-.44-.88-.44-.66.15-.88.44-.33.68-.33,1.17.11.88.33,1.17.51.43.88.43.66-.14.88-.43Z"/>
      <path d="m351.13,97.13c.4,0,.71-.13.92-.38s.32-.62.32-1.11v-.14h0c-.29.37-.67.56-1.13.56-.56,0-1-.21-1.34-.63s-.5-.98-.5-1.69c0-.63.16-1.13.49-1.52s.75-.58,1.28-.58.9.22,1.2.65l.05.07v-.6h.66v3.87c0,.71-.16,1.23-.48,1.57s-.8.51-1.45.51c-.47,0-.85-.11-1.13-.33s-.45-.54-.5-.95h.72c.04.22.14.4.3.52s.36.18.6.18Zm.14-4.85c-.39,0-.68.12-.86.38s-.27.65-.27,1.19c0,.51.1.91.29,1.19s.48.42.84.42c.34,0,.62-.13.82-.38s.31-.59.31-1.01c0-.59-.09-1.03-.28-1.33s-.47-.44-.85-.44Z"/>
      <path d="m354.15,91.77h.67v.71c.06-.11.12-.21.19-.3.27-.36.59-.54.98-.54.07,0,.13.01.2.04v.72h-.14c-.38,0-.67.11-.88.34s-.31.55-.31.97v2.24h-.7v-4.18Z"/>
      <path d="m357.81,96.06c-.41,0-.73-.11-.97-.33s-.36-.51-.36-.89.11-.67.34-.89.55-.36.99-.41l.96-.12c.08,0,.15-.02.22-.04.09-.02.16-.07.21-.14s.07-.16.07-.27v-.04c0-.22-.08-.4-.25-.53s-.41-.19-.71-.19-.51.07-.68.2-.26.33-.29.6h-.65c.03-.46.2-.8.48-1.03s.7-.35,1.24-.35c.51,0,.89.11,1.16.33s.4.54.4.96v2.3c0,.07.02.13.06.17s.1.06.17.06c.02,0,.05,0,.09,0s.08-.01.13-.02v.51c-.07.03-.14.05-.21.06s-.14.02-.19.02c-.27,0-.46-.07-.58-.22-.08-.1-.13-.23-.17-.41-.05.06-.11.13-.18.19-.35.31-.78.47-1.29.47Zm1.46-1.77v-.45c-.13.06-.27.11-.43.13l-.64.09c-.34.05-.59.13-.74.24s-.23.26-.23.45c0,.23.06.41.19.54s.31.19.54.19c.37,0,.68-.1.94-.3.17-.14.29-.3.35-.48.01-.03.02-.09.02-.16,0-.08.01-.16.01-.25Z"/>
      <path d="m361.11,91.77h.67v.59l.04-.05c.3-.45.7-.67,1.19-.67.55,0,.98.19,1.3.56s.48.88.48,1.53c0,.73-.16,1.3-.48,1.71s-.77.62-1.34.62c-.47,0-.85-.18-1.12-.54l-.02-.03v2.11h-.7v-5.83Zm1.82,3.68c.37,0,.65-.14.84-.42s.29-.68.29-1.21-.09-.91-.27-1.16-.46-.38-.84-.38-.67.14-.85.43-.27.73-.27,1.35c0,.45.1.79.29,1.03s.47.36.82.36Z"/>
      <path d="m365.61,90.2h.7v2.13l.12-.16c.3-.36.69-.54,1.14-.54s.82.12,1.07.38.38.61.38,1.07v2.86h-.7v-2.69c0-.35-.07-.6-.2-.75s-.35-.23-.65-.23c-.35,0-.64.13-.84.38s-.31.6-.31,1.04v2.24h-.7v-5.74Z"/>
      <path d="m371.86,96.08c-.25.64-.46,1.06-.65,1.26s-.48.3-.86.3c-.12,0-.24-.01-.34-.04v-.65c.11.04.24.06.4.06.16,0,.29-.06.4-.19.11-.13.23-.37.36-.73v-.07s.01,0,.01,0l-1.55-4.25h.8l1.12,3.46h0l1.13-3.46h.77l-1.59,4.32Z"/>
    </g>
    <text class="cls-5" transform="translate(192.1 14.3)"><tspan x="0" y="0">Inappropriateness</tspan></text>
    <text class="cls-6" transform="translate(368.85 48.06)"><tspan x="0" y="0">Other</tspan><tspan x="-6.01" y="9">Reasons</tspan></text>
    <g>
      <path class="cls-7" d="m123.23,48.06h-1.12v-5.74h1.76l1.05,4.55,1.03-4.55h1.73v5.74h-1.12v-4.83h0l-1.07,4.83h-1.18l-1.07-4.93h0v4.93Z"/>
      <path class="cls-7" d="m128.78,42.27h1.14v1.04h-1.14v-1.04Zm.01,1.54h1.12v4.25h-1.12v-4.25Z"/>
      <path class="cls-7" d="m133.37,45.08c0-.16-.07-.3-.2-.39-.14-.1-.31-.15-.54-.15s-.39.04-.51.11-.18.18-.18.31c0,.09.07.17.21.24.14.06.38.14.72.21.69.15,1.15.32,1.38.5.23.18.35.47.35.86,0,.42-.17.75-.51,1.01-.34.25-.78.38-1.33.38-.65,0-1.16-.12-1.51-.38s-.54-.61-.56-1.09h1.14c0,.2.09.35.26.46s.39.17.67.17c.22,0,.4-.04.53-.12.13-.08.19-.18.19-.32,0-.1-.06-.18-.18-.25-.12-.06-.34-.13-.64-.2-.72-.16-1.2-.33-1.44-.51-.24-.18-.36-.45-.36-.82,0-.42.16-.76.47-1.02.31-.26.73-.39,1.24-.39.58,0,1.04.13,1.4.38s.53.59.53,1.01h-1.11Z"/>
      <path class="cls-7" d="m137.82,45.08c0-.16-.07-.3-.2-.39-.14-.1-.31-.15-.54-.15s-.39.04-.51.11-.18.18-.18.31c0,.09.07.17.21.24.14.06.38.14.72.21.69.15,1.15.32,1.38.5.23.18.35.47.35.86,0,.42-.17.75-.51,1.01-.34.25-.78.38-1.33.38-.65,0-1.16-.12-1.51-.38s-.54-.61-.56-1.09h1.14c0,.2.09.35.26.46s.39.17.67.17c.22,0,.4-.04.53-.12.13-.08.19-.18.19-.32,0-.1-.06-.18-.18-.25-.12-.06-.34-.13-.64-.2-.72-.16-1.2-.33-1.44-.51-.24-.18-.36-.45-.36-.82,0-.42.16-.76.47-1.02.31-.26.73-.39,1.24-.39.58,0,1.04.13,1.4.38s.53.59.53,1.01h-1.11Z"/>
      <path class="cls-7" d="m139.9,42.27h1.14v1.04h-1.14v-1.04Zm.01,1.54h1.12v4.25h-1.12v-4.25Z"/>
      <path class="cls-7" d="m142.09,43.81h1.07v.63c.04-.08.09-.15.14-.21.28-.35.68-.53,1.2-.53.45,0,.8.13,1.05.4s.38.63.38,1.11v2.86h-1.12v-2.66c0-.26-.06-.46-.17-.58s-.29-.19-.52-.19c-.29,0-.52.09-.68.27s-.24.43-.24.77v2.4h-1.12v-4.25Z"/>
      <path class="cls-7" d="m148.89,48.94c.31,0,.54-.08.68-.23s.21-.4.21-.76v-.52l-.09.14c-.25.34-.6.51-1.07.51-.55,0-1-.2-1.34-.6s-.51-.92-.51-1.57.17-1.2.5-1.61.77-.61,1.3-.61c.48,0,.85.17,1.11.52.05.06.1.14.14.21v-.62h1.05v4.02c0,.67-.17,1.17-.5,1.49s-.85.48-1.55.48c-.58,0-1.04-.11-1.38-.34s-.52-.54-.55-.94h1.22c.01.15.08.25.2.32s.31.1.57.1Zm-.04-4.28c-.29,0-.52.11-.68.33s-.25.53-.25.93.08.69.25.91.39.33.68.33.52-.11.69-.33.25-.53.25-.92-.08-.7-.25-.92-.39-.33-.69-.33Z"/>
      <path class="cls-7" d="m117.49,55.04c-.07.66-.33,1.19-.78,1.58s-1.02.59-1.71.59c-.81,0-1.45-.27-1.92-.81s-.71-1.27-.71-2.19.24-1.68.71-2.23,1.12-.83,1.92-.83c.68,0,1.25.18,1.7.55s.71.87.79,1.5h-1.2c-.04-.31-.17-.56-.4-.74-.23-.18-.52-.27-.87-.27-.45,0-.8.18-1.05.53s-.38.85-.38,1.48.13,1.1.38,1.44.6.52,1.05.52c.35,0,.64-.1.87-.3.23-.2.36-.48.4-.82h1.2Z"/>
      <path class="cls-7" d="m118.66,56.57c-.39-.4-.59-.94-.59-1.61s.2-1.24.59-1.65.92-.61,1.58-.61,1.2.2,1.59.61.59.96.59,1.65-.2,1.21-.59,1.61-.92.6-1.59.6-1.19-.2-1.58-.6Zm2.35-.67c.17-.22.26-.54.26-.96s-.09-.76-.26-.98-.43-.33-.76-.33-.59.11-.76.33-.26.55-.26.98.09.74.26.96.43.33.76.33.59-.11.76-.33Z"/>
      <path class="cls-7" d="m123.19,52.81h1.07v.68c.05-.12.11-.23.19-.32.25-.32.61-.48,1.08-.48.37,0,.68.13.92.38.09.1.17.2.22.32l.14-.22c.23-.32.57-.48,1.01-.48s.82.14,1.08.41.39.65.39,1.14v2.82h-1.12v-2.5c0-.32-.05-.55-.16-.71s-.27-.23-.49-.23c-.23,0-.41.07-.54.22s-.19.35-.19.62v2.59h-1.12v-2.68c0-.26-.05-.44-.16-.57s-.28-.18-.5-.18-.4.07-.52.22-.18.35-.18.62v2.59h-1.12v-4.25Z"/>
      <path class="cls-7" d="m130.31,52.81h1.07v.68c.05-.12.11-.23.19-.32.25-.32.61-.48,1.08-.48.37,0,.68.13.92.38.09.1.17.2.22.32l.14-.22c.23-.32.57-.48,1.01-.48s.82.14,1.08.41.39.65.39,1.14v2.82h-1.12v-2.5c0-.32-.05-.55-.16-.71s-.27-.23-.49-.23c-.23,0-.41.07-.54.22s-.19.35-.19.62v2.59h-1.12v-2.68c0-.26-.05-.44-.16-.57s-.28-.18-.5-.18-.4.07-.52.22-.18.35-.18.62v2.59h-1.12v-4.25Z"/>
      <path class="cls-7" d="m137.46,51.27h1.14v1.04h-1.14v-1.04Zm.01,1.54h1.12v4.25h-1.12v-4.25Z"/>
      <path class="cls-7" d="m141.6,57.08c-.19.02-.42.02-.69.02-.4,0-.68-.07-.85-.21s-.26-.37-.26-.7v-2.6h-.59v-.79h.59v-1.14h1.12v1.14h.68v.79h-.68v2.41c0,.1.03.16.09.2s.18.05.37.05h.23v.83Z"/>
      <path class="cls-7" d="m142.31,52.81h1.07v.68c.05-.12.11-.23.19-.32.25-.32.61-.48,1.08-.48.37,0,.68.13.92.38.09.1.17.2.22.32l.14-.22c.23-.32.57-.48,1.01-.48s.82.14,1.08.41.39.65.39,1.14v2.82h-1.12v-2.5c0-.32-.05-.55-.16-.71s-.27-.23-.49-.23c-.23,0-.41.07-.54.22s-.19.35-.19.62v2.59h-1.12v-2.68c0-.26-.05-.44-.16-.57s-.28-.18-.5-.18-.4.07-.52.22-.18.35-.18.62v2.59h-1.12v-4.25Z"/>
      <path class="cls-7" d="m151.11,57.17c-.65,0-1.14-.2-1.49-.6s-.53-.97-.53-1.7c0-.68.18-1.21.54-1.6s.85-.58,1.48-.58,1.15.2,1.5.59.53.95.53,1.67c0,.08,0,.17-.02.25h-2.89c.03.34.1.59.22.75.16.21.42.31.78.31.17,0,.33-.05.47-.14s.23-.21.26-.35h1.14c-.1.43-.32.77-.67,1.02s-.79.37-1.31.37Zm.86-2.67c-.03-.26-.09-.45-.2-.6-.14-.19-.37-.29-.67-.29s-.51.11-.66.33c-.09.14-.16.32-.2.55h1.73Z"/>
      <path class="cls-7" d="m153.88,52.81h1.07v.63c.04-.08.09-.15.14-.21.28-.35.68-.53,1.2-.53.45,0,.8.13,1.05.4s.38.63.38,1.11v2.86h-1.12v-2.66c0-.26-.06-.46-.17-.58s-.29-.19-.52-.19c-.29,0-.52.09-.68.27s-.24.43-.24.77v2.4h-1.12v-4.25Z"/>
      <path class="cls-7" d="m160.69,57.08c-.19.02-.42.02-.69.02-.4,0-.68-.07-.85-.21s-.26-.37-.26-.7v-2.6h-.59v-.79h.59v-1.14h1.12v1.14h.68v.79h-.68v2.41c0,.1.03.16.09.2s.18.05.37.05h.23v.83Z"/>
    </g>
    <g>
      <path class="cls-10" d="m241.85,48.06h-1.12v-5.74h1.76l1.04,4.55,1.03-4.55h1.73v5.74h-1.12v-4.83l-1.07,4.83h-1.18l-1.07-4.93h0v4.93Z"/>
      <path class="cls-10" d="m247.39,42.27h1.14v1.04h-1.14v-1.04Zm.01,1.54h1.12v4.25h-1.12v-4.25Z"/>
      <path class="cls-10" d="m251.98,45.08c0-.16-.07-.3-.2-.39s-.32-.15-.54-.15-.38.04-.51.11-.18.18-.18.31c0,.09.07.17.21.24.13.06.38.14.72.21.69.15,1.15.32,1.38.5.23.18.35.47.35.86,0,.42-.17.75-.51,1.01s-.78.38-1.33.38c-.65,0-1.16-.12-1.51-.38s-.54-.61-.56-1.09h1.14c0,.2.09.35.26.46.17.11.39.17.67.17.22,0,.4-.04.53-.12.13-.08.19-.18.19-.32,0-.1-.06-.18-.18-.25-.12-.06-.34-.13-.64-.2-.72-.16-1.2-.33-1.44-.51-.24-.18-.36-.45-.36-.82,0-.42.16-.76.47-1.02.31-.26.73-.39,1.24-.39.58,0,1.04.13,1.4.38.35.25.53.59.53,1.01h-1.11Z"/>
      <path class="cls-10" d="m256.43,45.08c0-.16-.07-.3-.2-.39s-.32-.15-.54-.15-.38.04-.51.11-.18.18-.18.31c0,.09.07.17.21.24.13.06.38.14.72.21.69.15,1.15.32,1.38.5.23.18.35.47.35.86,0,.42-.17.75-.51,1.01s-.78.38-1.33.38c-.65,0-1.16-.12-1.51-.38s-.54-.61-.56-1.09h1.14c0,.2.09.35.26.46.17.11.39.17.67.17.22,0,.4-.04.53-.12.13-.08.19-.18.19-.32,0-.1-.06-.18-.18-.25-.12-.06-.34-.13-.64-.2-.72-.16-1.2-.33-1.44-.51-.24-.18-.36-.45-.36-.82,0-.42.16-.76.47-1.02.31-.26.73-.39,1.24-.39.58,0,1.04.13,1.4.38.35.25.53.59.53,1.01h-1.11Z"/>
      <path class="cls-10" d="m258.5,42.27h1.14v1.04h-1.14v-1.04Zm.01,1.54h1.12v4.25h-1.12v-4.25Z"/>
      <path class="cls-10" d="m260.69,43.81h1.07v.63c.04-.08.09-.15.14-.21.28-.35.68-.53,1.2-.53.45,0,.8.13,1.05.4s.38.63.38,1.11v2.86h-1.12v-2.66c0-.26-.06-.46-.17-.58-.11-.13-.29-.19-.52-.19-.29,0-.52.09-.68.27s-.24.43-.24.77v2.4h-1.12v-4.25Z"/>
      <path class="cls-10" d="m267.49,48.94c.31,0,.54-.08.68-.23.14-.15.21-.4.21-.76v-.52l-.09.14c-.25.34-.6.51-1.07.51-.55,0-1-.2-1.34-.6-.34-.4-.51-.92-.51-1.57s.17-1.2.5-1.61c.33-.41.76-.61,1.3-.61.48,0,.85.17,1.11.52.05.06.1.14.14.21v-.62h1.05v4.02c0,.67-.17,1.17-.5,1.49s-.85.48-1.55.48c-.58,0-1.04-.11-1.38-.34-.34-.23-.52-.54-.55-.94h1.22c.01.15.08.25.2.32s.31.1.57.1Zm-.04-4.28c-.29,0-.52.11-.68.33s-.25.53-.25.93.08.69.25.91.39.33.68.33.52-.11.69-.33c.17-.22.25-.53.25-.92s-.08-.7-.25-.92c-.17-.22-.39-.33-.68-.33Z"/>
      <path class="cls-10" d="m232.25,51.32h1.2v5.74h-1.2v-5.74Z"/>
      <path class="cls-10" d="m234.48,52.81h1.07v.63c.04-.08.09-.15.14-.21.28-.35.68-.53,1.2-.53.45,0,.8.13,1.05.4s.38.63.38,1.11v2.86h-1.12v-2.66c0-.26-.06-.46-.17-.58-.11-.13-.29-.19-.52-.19-.29,0-.52.09-.68.27s-.24.43-.24.77v2.4h-1.12v-4.25Z"/>
      <path class="cls-10" d="m241.31,57.08c-.19.02-.42.02-.69.02-.4,0-.68-.07-.85-.21-.17-.14-.26-.37-.26-.7v-2.6h-.59v-.79h.59v-1.14h1.12v1.14h.68v.79h-.68v2.41c0,.1.03.16.09.2s.18.05.37.05h.23v.83Z"/>
      <path class="cls-10" d="m243.71,57.17c-.65,0-1.14-.2-1.49-.6-.35-.4-.53-.97-.53-1.7,0-.68.18-1.21.54-1.6.36-.38.85-.58,1.48-.58s1.15.2,1.5.59c.35.39.53.95.53,1.67,0,.08,0,.17-.02.25h-2.89c.03.34.1.59.22.75.16.21.42.31.78.31.17,0,.33-.05.47-.14s.23-.21.26-.35h1.14c-.1.43-.32.77-.67,1.02-.35.24-.79.37-1.31.37Zm.85-2.67c-.03-.26-.09-.45-.2-.6-.14-.19-.37-.29-.67-.29s-.51.11-.66.33c-.09.14-.16.32-.2.55h1.73Z"/>
      <path class="cls-10" d="m246.5,51.32h1.12v5.74h-1.12v-5.74Z"/>
      <path class="cls-10" d="m248.72,51.32h1.12v5.74h-1.12v-5.74Z"/>
      <path class="cls-10" d="m250.95,51.27h1.14v1.04h-1.14v-1.04Zm.01,1.54h1.12v4.25h-1.12v-4.25Z"/>
      <path class="cls-10" d="m255.05,57.94c.31,0,.54-.08.68-.23.14-.15.21-.4.21-.76v-.52l-.09.14c-.25.34-.6.51-1.07.51-.55,0-1-.2-1.34-.6-.34-.4-.51-.92-.51-1.57s.17-1.2.5-1.61c.33-.41.76-.61,1.3-.61.48,0,.85.17,1.11.52.05.06.1.14.14.21v-.62h1.05v4.02c0,.67-.17,1.17-.5,1.49s-.85.48-1.55.48c-.58,0-1.04-.11-1.38-.34-.34-.23-.52-.54-.55-.94h1.22c.01.15.08.25.2.32s.31.1.57.1Zm-.04-4.28c-.29,0-.52.11-.68.33s-.25.53-.25.93.08.69.25.91.39.33.68.33.52-.11.69-.33c.17-.22.25-.53.25-.92s-.08-.7-.25-.92c-.17-.22-.39-.33-.68-.33Z"/>
      <path class="cls-10" d="m258.05,51.27h1.14v1.04h-1.14v-1.04Zm.01,1.54h1.12v4.25h-1.12v-4.25Z"/>
      <path class="cls-10" d="m260.21,51.32h1.12v2.05l.02-.03c.3-.42.7-.64,1.2-.64.54,0,.97.2,1.3.6s.49.92.49,1.57c0,.69-.16,1.25-.49,1.67s-.76.63-1.3.63c-.49,0-.89-.2-1.2-.59l-.05-.06v.55h-1.1v-5.74Zm2.02,4.93c.3,0,.54-.11.71-.34.17-.23.25-.54.25-.94s-.08-.73-.25-.96c-.17-.23-.4-.35-.7-.35s-.53.12-.7.36-.25.57-.25.99c0,.39.08.69.25.91.17.22.4.33.7.33Z"/>
      <path class="cls-10" d="m265.16,51.27h1.14v1.04h-1.14v-1.04Zm.01,1.54h1.12v4.25h-1.12v-4.25Z"/>
      <path class="cls-10" d="m267.38,51.32h1.12v5.74h-1.12v-5.74Z"/>
      <path class="cls-10" d="m269.6,51.27h1.14v1.04h-1.14v-1.04Zm.01,1.54h1.12v4.25h-1.12v-4.25Z"/>
      <path class="cls-10" d="m273.74,57.08c-.19.02-.42.02-.69.02-.4,0-.68-.07-.85-.21-.17-.14-.26-.37-.26-.7v-2.6h-.59v-.79h.59v-1.14h1.12v1.14h.68v.79h-.68v2.41c0,.1.03.16.09.2s.18.05.37.05h.23v.83Z"/>
      <path class="cls-10" d="m276.72,57.15c-.25.72-.46,1.17-.63,1.35-.17.18-.49.27-.93.27h-.53v-.91s.1.02.21.02c.3,0,.5-.06.59-.18.06-.08.11-.24.17-.48l-1.58-4.4h1.24l.92,3.15h0l.9-3.15h1.17l-1.52,4.34Z"/>
    </g>
    <g>
      <path class="cls-4" d="m33.11,43.34h-1.73v-1.02h4.67v1.02h-1.73v4.72h-1.2v-4.72Z"/>
      <path class="cls-4" d="m37.01,47.57c-.39-.4-.59-.94-.59-1.61s.2-1.24.59-1.65.92-.61,1.58-.61,1.2.2,1.59.61.59.96.59,1.65-.2,1.21-.59,1.61-.92.6-1.59.6-1.19-.2-1.58-.6Zm2.35-.67c.17-.22.26-.54.26-.96s-.09-.76-.26-.98-.43-.33-.76-.33-.59.11-.76.33-.26.55-.26.98.09.74.26.96.43.33.76.33.59-.11.76-.33Z"/>
      <path class="cls-4" d="m42.6,45.89l-1.39-2.08h1.35l.72,1.26.71-1.26h1.31l-1.38,2.1,1.44,2.15h-1.38l-.74-1.3-.74,1.3h-1.35l1.45-2.17Z"/>
      <path class="cls-4" d="m46.03,42.27h1.14v1.04h-1.14v-1.04Zm.01,1.54h1.12v4.25h-1.12v-4.25Z"/>
      <path class="cls-4" d="m51.9,46.49c-.06.53-.25.94-.59,1.24s-.77.45-1.31.45c-.64,0-1.14-.19-1.49-.57s-.53-.93-.53-1.64.18-1.24.54-1.65.85-.61,1.47-.61c.55,0,.99.15,1.34.45s.54.7.56,1.19h-1.14c-.01-.21-.09-.38-.22-.51s-.32-.2-.54-.2c-.28,0-.5.11-.64.34s-.22.55-.22.99.07.74.22.96.36.33.64.33c.2,0,.38-.07.52-.21s.22-.33.25-.55h1.14Z"/>
      <path class="cls-4" d="m24.11,57.06v-5.74h4.23v1.02h-3.03v1.22h2.81v.99h-2.81v1.5h3.16v1.02h-4.36Z"/>
      <path class="cls-4" d="m29.35,52.81h1.07v.68c.05-.12.11-.23.19-.32.25-.32.61-.48,1.08-.48.37,0,.68.13.92.38.09.1.17.2.22.32l.14-.22c.23-.32.57-.48,1.01-.48s.82.14,1.08.41.39.65.39,1.14v2.82h-1.12v-2.5c0-.32-.05-.55-.16-.71s-.27-.23-.49-.23c-.23,0-.41.07-.54.22s-.19.35-.19.62v2.59h-1.12v-2.68c0-.26-.05-.44-.16-.57s-.28-.18-.5-.18-.4.07-.52.22-.18.35-.18.62v2.59h-1.12v-4.25Z"/>
      <path class="cls-4" d="m36.81,56.57c-.39-.4-.59-.94-.59-1.61s.2-1.24.59-1.65.92-.61,1.58-.61,1.2.2,1.59.61.59.96.59,1.65-.2,1.21-.59,1.61-.92.6-1.59.6-1.19-.2-1.58-.6Zm2.35-.67c.17-.22.26-.54.26-.96s-.09-.76-.26-.98-.43-.33-.76-.33-.59.11-.76.33-.26.55-.26.98.09.74.26.96.43.33.76.33.59-.11.76-.33Z"/>
      <path class="cls-4" d="m43.31,57.08c-.19.02-.42.02-.69.02-.4,0-.68-.07-.85-.21s-.26-.37-.26-.7v-2.6h-.59v-.79h.59v-1.14h1.12v1.14h.68v.79h-.68v2.41c0,.1.03.16.09.2s.18.05.37.05h.23v.83Z"/>
      <path class="cls-4" d="m44.05,51.27h1.14v1.04h-1.14v-1.04Zm.01,1.54h1.12v4.25h-1.12v-4.25Z"/>
      <path class="cls-4" d="m46.56,56.57c-.39-.4-.59-.94-.59-1.61s.2-1.24.59-1.65.92-.61,1.58-.61,1.2.2,1.59.61.59.96.59,1.65-.2,1.21-.59,1.61-.92.6-1.59.6-1.19-.2-1.58-.6Zm2.35-.67c.17-.22.26-.54.26-.96s-.09-.76-.26-.98-.43-.33-.76-.33-.59.11-.76.33-.26.55-.26.98.09.74.26.96.43.33.76.33.59-.11.76-.33Z"/>
      <path class="cls-4" d="m51.1,52.81h1.07v.63c.04-.08.09-.15.14-.21.28-.35.68-.53,1.2-.53.45,0,.8.13,1.05.4s.38.63.38,1.11v2.86h-1.12v-2.66c0-.26-.06-.46-.17-.58s-.29-.19-.52-.19c-.29,0-.52.09-.68.27s-.24.43-.24.77v2.4h-1.12v-4.25Z"/>
      <path class="cls-4" d="m58.4,54.08c0-.16-.07-.3-.2-.39-.14-.1-.31-.15-.54-.15s-.39.04-.51.11-.18.18-.18.31c0,.09.07.17.21.24.14.06.38.14.72.21.69.15,1.15.32,1.38.5.23.18.35.47.35.86,0,.42-.17.75-.51,1.01-.34.25-.78.38-1.33.38-.65,0-1.16-.12-1.51-.38s-.54-.61-.56-1.09h1.14c0,.2.09.35.26.46s.39.17.67.17c.22,0,.4-.04.53-.12.13-.08.19-.18.19-.32,0-.1-.06-.18-.18-.25-.12-.06-.34-.13-.64-.2-.72-.16-1.2-.33-1.44-.51-.24-.18-.36-.45-.36-.82,0-.42.16-.76.47-1.02.31-.26.73-.39,1.24-.39.58,0,1.04.13,1.4.38s.53.59.53,1.01h-1.11Z"/>
    </g>
    <rect class="cls-1" x="435.71" y="23.93" width="12.96" height="14.58"/>
    <rect class="cls-1" x="435.71" y="62.59" width="12.96" height="14.3"/>
    <text class="cls-3" transform="translate(430.9 71.38)"><tspan x="0" y="0">namely</tspan></text>
    <text class="cls-3" transform="translate(432.46 33.12)"><tspan x="0" y="0">due to</tspan></text>
    <g>
      <line class="cls-9" x1="136.45" y1="31.17" x2="136.45" y2="35.24"/>
      <polygon class="cls-11" points="134.96 34.8 136.45 37.4 137.95 34.8 134.96 34.8"/>
    </g>
    <g>
      <line class="cls-9" x1="255.06" y1="31.17" x2="255.06" y2="35.24"/>
      <polygon class="cls-11" points="253.56 34.8 255.06 37.4 256.55 34.8 253.56 34.8"/>
    </g>
    <g>
      <line class="cls-9" x1="379.52" y1="31.17" x2="379.52" y2="35.24"/>
      <polygon class="cls-11" points="378.02 34.8 379.52 37.4 381.02 34.8 378.02 34.8"/>
    </g>
    <g>
      <line class="cls-9" x1="19.2" y1="69.18" x2="19.2" y2="73.25"/>
      <polygon class="cls-11" points="17.71 72.81 19.2 75.4 20.7 72.81 17.71 72.81"/>
    </g>
    <g>
      <line class="cls-9" x1="64.05" y1="69.18" x2="64.05" y2="73.25"/>
      <polygon class="cls-11" points="62.56 72.81 64.05 75.4 65.55 72.81 62.56 72.81"/>
    </g>
    <g>
      <line class="cls-9" x1="113.53" y1="69.18" x2="113.53" y2="73.25"/>
      <polygon class="cls-11" points="112.03 72.81 113.53 75.4 115.03 72.81 112.03 72.81"/>
    </g>
    <g>
      <line class="cls-9" x1="163.39" y1="69.18" x2="163.39" y2="73.25"/>
      <polygon class="cls-11" points="161.9 72.81 163.39 75.4 164.89 72.81 161.9 72.81"/>
    </g>
    <g>
      <line class="cls-9" x1="206.61" y1="69.18" x2="206.61" y2="73.25"/>
      <polygon class="cls-11" points="205.12 72.81 206.61 75.4 208.11 72.81 205.12 72.81"/>
    </g>
    <g>
      <line class="cls-9" x1="255.06" y1="69.18" x2="255.06" y2="73.25"/>
      <polygon class="cls-11" points="253.56 72.81 255.06 75.4 256.55 72.81 253.56 72.81"/>
    </g>
    <g>
      <line class="cls-9" x1="299.55" y1="69.18" x2="299.55" y2="73.25"/>
      <polygon class="cls-11" points="298.05 72.81 299.55 75.4 301.04 72.81 298.05 72.81"/>
    </g>
    <g>
      <line class="cls-9" x1="351.31" y1="69.18" x2="351.31" y2="73.25"/>
      <polygon class="cls-11" points="349.81 72.81 351.31 75.4 352.8 72.81 349.81 72.81"/>
    </g>
    <g>
      <line class="cls-9" x1="407.07" y1="69.18" x2="407.07" y2="73.25"/>
      <polygon class="cls-11" points="405.58 72.81 407.07 75.4 408.57 72.81 405.58 72.81"/>
    </g>
  </g>
</svg>